<svg width="130" height="130" viewBox="0 0 130 130" fill="none" xmlns="http://www.w3.org/2000/svg">
<rect width="130" height="130" fill="white"/>
<path d="M28.2657 67.6184C26.9876 66.9134 29.5329 67.2801 29.9716 67.2801C34.6233 67.2801 39.1546 66.553 43.7248 65.7381C50.2271 64.5788 56.8774 63.7908 63.4945 63.7908" stroke="#450D59" stroke-width="3" stroke-linecap="round" stroke-linejoin="round"/>
<path d="M27.45 67.8438C27.192 69.5258 26.6963 74.5523 27.2553 72.9451" stroke="#450D59" stroke-width="3" stroke-linecap="round" stroke-linejoin="round"/>
<path d="M62.9922 63.8174C65.3193 63.8174 70.8405 61.1981 71.7347 63.9913C73.22 68.6306 73.194 73.542 73.6953 78.3529C74.0413 81.6731 74.2926 85.1337 74.2926 88.4766C74.2926 89.7129 73.5521 94.105 75.1363 94.392C76.3088 94.6045 78.1306 95.2728 79.2659 94.6906" stroke="#450D59" stroke-width="3" stroke-linecap="round" stroke-linejoin="round"/>
<path d="M68.9727 62.212C69.0217 60.8793 83.5828 60.4462 85.3014 60.209C86.1912 60.0862 87.2868 59.6267 88.1961 59.731C88.267 59.7391 88.233 60.3586 88.2365 60.4113C88.3294 61.8371 88.8875 63.3148 89.5599 64.5618C92.7193 70.4206 105.45 68.9611 102.117 61.2858C100.027 56.471 89.8316 50.8735 88.1224 58.6895" stroke="#450D59" stroke-width="3" stroke-linecap="round" stroke-linejoin="round"/>
<path d="M93.041 47.6177C92.6321 47.6324 94.0302 57.02 93.4569 58.2382" stroke="#450D59" stroke-width="3" stroke-linecap="round" stroke-linejoin="round"/>
<path d="M80.4408 36.4333C79.9779 34.7317 79.983 38.5834 79.9806 38.6888C79.8509 44.4682 79.819 50.2624 79.8302 56.0432C79.8318 56.8464 80.7086 63.3917 80.8656 61.1372" stroke="#450D59" stroke-width="3" stroke-linecap="round" stroke-linejoin="round"/>
<path d="M81.265 60.4075C80.7983 60.2215 81.4724 63.9849 81.5413 64.4902C82.0738 68.3948 82.4486 72.3144 82.6592 76.2495C82.9207 81.136 82.9281 85.9222 83.877 90.7334C84.4433 93.6052 89.9625 91.4532 92.1938 91.4532" stroke="#450D59" stroke-width="3" stroke-linecap="round" stroke-linejoin="round"/>
</svg>
