<svg width="130" height="130" viewBox="0 0 130 130" fill="none" xmlns="http://www.w3.org/2000/svg">
<g clip-path="url(#clip0_128_138)">
<rect width="130" height="130" fill="white"/>
<path d="M54.888 81.9978C48.1773 86.9185 48.9043 109.608 60.3342 103.524C67.1144 99.9154 67.9123 90.438 62.9854 85.2021C59.9864 82.015 51.5734 78.0032 51.0879 85.2092" stroke="#450D59" stroke-width="3.93883" stroke-linecap="round" stroke-linejoin="round"/>
<path d="M59.4565 67.9039C58.9318 67.6607 58.8253 67.4118 59.1497 68.2572C60.9239 72.8807 62.4657 77.5811 64.1334 82.2443C66.4455 88.7092 70.2807 93.9818 72.9504 100.114C74.426 103.503 69.5845 102.324 67.248 102.176C63.2261 101.921 51.1284 102.162 55.1583 102.162" stroke="#450D59" stroke-width="3.93883" stroke-linecap="round" stroke-linejoin="round"/>
<path d="M56.877 65.4607C55.1381 65.7877 59.3896 50.4296 59.7472 48.3155C61.5057 37.9208 62.2141 26.7285 62.2141 16.1773C62.2141 13.3698 62.8085 9.66655 61.531 7.11157" stroke="#450D59" stroke-width="3.93883" stroke-linecap="round" stroke-linejoin="round"/>
<path d="M60.9073 92.3681C57.499 92.2121 67.3232 89.955 70.6707 89.2954" stroke="#450D59" stroke-width="3.93883" stroke-linecap="round" stroke-linejoin="round"/>
<path d="M62.3495 5.63107C60.9299 5.63107 64.9446 0.639542 65.324 0.104492" stroke="#450D59" stroke-width="3.93883" stroke-linecap="round" stroke-linejoin="round"/>
</g>
<defs>
<clipPath id="clip0_128_138">
<rect width="130" height="130" fill="white"/>
</clipPath>
</defs>
</svg>
