<svg viewBox="0 0 130 130" fill="none" xmlns="http://www.w3.org/2000/svg" preserveAspectRatio="xMidYMid meet">
<path d="M65 65C65 65 60 70 60 75C60 80 65 85 70 85C75 85 80 80 80 75C80 70 75 65 70 65C65 65 65 65 65 65Z" stroke="currentColor" stroke-width="3" stroke-linecap="round" stroke-linejoin="round"/>
<path d="M70 85C70 85 75 90 75 95C75 100 70 105 65 105C60 105 55 100 55 95C55 90 60 85 65 85C70 85 70 85 70 85Z" stroke="currentColor" stroke-width="3" stroke-linecap="round" stroke-linejoin="round"/>
<path d="M65 105C65 105 60 110 60 115C60 120 65 125 70 125C75 125 80 120 80 115C80 110 75 105 70 105C65 105 65 105 65 105Z" stroke="currentColor" stroke-width="3" stroke-linecap="round" stroke-linejoin="round"/>
</svg>
