<svg width="130" height="130" viewBox="0 0 130 130" fill="none" xmlns="http://www.w3.org/2000/svg">
<rect width="130" height="130" fill="white"/>
<path d="M35.6896 85.483C33.3316 83.5586 37.6302 79.2714 39.4607 78.7271C42.9311 77.6952 47.4903 78.5589 51.088 78.525C55.2152 78.4861 59.0729 78.9505 63.1599 79.1916C65.9908 79.3585 74.4997 78.952 71.6639 78.952" stroke="#450D59" stroke-width="3" stroke-linecap="round" stroke-linejoin="round"/>
<path d="M70.7628 79.4909C70.7628 79.8488 75.6442 77.6417 75.5966 75.3355C75.5241 71.826 71.0927 69.0356 68.1289 68.3649C60.8968 66.7282 53.8238 69.0447 46.5676 69.074C43.6641 69.0857 40.262 69.6946 38.3073 67.0467C35.2326 62.8815 36.7322 59.3665 39.8445 55.7127C44.3571 50.4149 48.3875 47.2006 54.9413 44.7025C60.4807 42.5911 65.9565 42 71.8301 42C80.4683 42 87.7273 48.2248 89.564 56.6582C90.1613 59.4005 91.0439 61.942 91.0439 64.7838C91.0439 67.9904 87.8473 65.8176 85.5096 65.8861C82.113 65.9857 78.7487 71.2861 79.8612 74.4963C81.374 78.8614 86.0919 80.4984 90.3691 79.6957C93.5773 79.0937 95.1588 74.5497 95.1588 71.6449C95.1588 69.8215 94.4404 68.8963 93.146 67.7117C92.6363 67.2452 90.234 66.3931 90.1453 65.883" stroke="#450D59" stroke-width="3" stroke-linecap="round" stroke-linejoin="round"/>
<path d="M84.4344 72.96C85.7027 72.96 82.3175 71.5567 81.3253 70.7665C80.1214 69.8077 78.8813 68.8817 77.6992 67.897" stroke="#450D59" stroke-width="3" stroke-linecap="round" stroke-linejoin="round"/>
<path d="M82.7792 46.7014C82.7792 45.793 82.8572 49.094 82.6215 49.7782C80.6333 55.5509 76.4601 59.4608 72.2314 63.5961C65.3754 70.3005 55.8008 76.9165 55.8008 87.4684" stroke="#450D59" stroke-width="3" stroke-linecap="round" stroke-linejoin="round"/>
</svg>
