<svg width="130" height="130" viewBox="0 0 130 130" fill="none" xmlns="http://www.w3.org/2000/svg">
<rect width="130" height="130" fill="white"/>
<path d="M63.2034 37.2124C59.3863 33.6401 56.5263 41.834 55.933 44.3544C55.2699 47.1707 54.4481 51.7836 56.7569 54.1201C58.6681 56.0542 62.0736 54.9684 63.9486 53.6045C68.8942 50.0071 70.9243 41.9082 66.5115 37.1089C63.4915 33.8243 59.3692 34.3714 58.4538 38.7866" stroke="#450D59" stroke-width="3" stroke-linecap="round" stroke-linejoin="round"/>
<path d="M62.1131 53.2756C60.4412 52.9587 61.6463 70.0811 61.8297 72.3752C61.9857 74.3262 62.1131 76.275 62.1131 78.2324C62.1131 79.4298 62.0572 79.3062 62.289 78.2237" stroke="#450D59" stroke-width="3" stroke-linecap="round" stroke-linejoin="round"/>
<path d="M63.1708 80.2924C62.2173 77.6532 49.8135 80.7813 47.8701 81.0333C42.3327 81.751 36.8037 82.5272 31.2647 83.2329C31.0457 83.2608 26.9582 83.6412 27.3017 84.123C28.5892 85.9289 34.3787 86.408 36.2977 86.9354C42.4987 88.6393 48.5839 90.701 54.8516 92.1671C57.1737 92.7103 63.5777 94.0151 57.9264 94.0151" stroke="#450D59" stroke-width="3" stroke-linecap="round" stroke-linejoin="round"/>
<path d="M64.7422 78.3639C73.6754 78.2887 82.5668 77.392 91.5102 77.3831C91.6824 77.383 102.014 77.043 98.5125 78.9949C92.2549 82.483 86.1377 86.5723 79.5017 89.3055C76.7923 90.4214 74.0015 91.4681 71.4928 93.0001C70.9544 93.3289 70.1988 94.1201 69.5578 94.2213" stroke="#450D59" stroke-width="3" stroke-linecap="round" stroke-linejoin="round"/>
<path d="M59.1792 43.229C59.0753 43.1411 61.3811 46.5543 62.7292 44.425C63.419 43.3354 65.0954 44.6704 66.1387 43.2949" stroke="#450D59" stroke-width="3" stroke-linecap="round" stroke-linejoin="round"/>
<path d="M59.4972 62.8279C58.9841 62.8279 58.5176 62.8048 58.0545 63.0669C53.5735 65.6036 49.6159 69.2152 45.4096 72.165C38.9145 76.72 33.2064 81.8165 27.4628 87.2761C27.0153 87.7015 22.2365 92.4586 23.1053 92.5069" stroke="#450D59" stroke-width="3" stroke-linecap="round" stroke-linejoin="round"/>
<path d="M60.7188 61.8803C60.7188 61.4606 66.1406 63.7191 66.5691 63.8862C74.1617 66.8478 82.2031 68.3848 89.748 71.4756C95.6947 73.9117 101.33 77.4674 107.588 79.1058" stroke="#450D59" stroke-width="3" stroke-linecap="round" stroke-linejoin="round"/>
</svg>
