<svg viewBox="0 0 130 130" fill="none" xmlns="http://www.w3.org/2000/svg" preserveAspectRatio="xMidYMid meet">
<path d="M25.8552 32.7338C19.0772 35.3431 17.1643 42.0346 18.3116 49.0706C19.4752 56.2066 28.9609 59.2085 33.7071 53.653C44.0146 41.5878 22.7869 24.721 20.635 35.3861" stroke="currentColor" stroke-width="3.38644" stroke-linecap="round" stroke-linejoin="round"/>
<path d="M27.573 58.4021C27.4742 55.3154 26.9451 65.3613 26.9006 65.9775C26.2435 75.0891 24.4073 84.1973 24.3281 93.3407C24.2956 97.0868 23.916 98.6229 27.9705 98.1486C36.2377 97.1814 43.7733 95.8692 52.2361 95.8215C70.8372 95.7168 89.1748 93.8367 107.716 92.9292C111.901 92.7244 112.521 93.8989 111.504 90.3123C110.577 87.0402 111.639 77.3736 108.584 75.3887" stroke="currentColor" stroke-width="3.38644" stroke-linecap="round" stroke-linejoin="round"/>
<path d="M28.2554 46.836C23.5771 46.001 37.7333 46.0794 42.4468 45.4736" stroke="currentColor" stroke-width="3.38644" stroke-linecap="round" stroke-linejoin="round"/>
<path d="M27.8312 70.0983C17.6064 69.9308 48.2846 69.567 58.4825 68.8084C68.435 68.068 98.2503 65.7937 88.2703 65.7937" stroke="currentColor" stroke-width="3.38644" stroke-linecap="round" stroke-linejoin="round"/>
</svg>
