<svg width="40" height="40" viewBox="0 0 40 40" fill="none" xmlns="http://www.w3.org/2000/svg">
<g style="mix-blend-mode:plus-darker" opacity="0.55">
<path d="M6.02463 37.2728H2.05051V37.3675C2.05051 37.469 2.06856 37.5703 2.12039 37.6576C2.2926 37.9474 2.81504 38.5975 4.03757 38.5975C4.40005 38.5975 4.87661 38.7523 5.2722 38.9123C5.6201 39.053 6.02463 38.8058 6.02463 38.4304V37.2728ZM4.00277 37.1996L5.5751 38.4146L4.00277 37.1996ZM5.00082 37.2123L4.97748 39.1992L5.00082 37.2123ZM28.303 36.932L28.3113 34.945L28.303 36.932ZM29.5638 36.8773L29.4389 34.8942L29.5638 36.8773ZM30.9455 36.7984L31.0515 38.7826L31.0571 38.7823L30.9455 36.7984ZM31.0881 34.7762L31.7159 38.7004L31.8095 38.6854C31.9097 38.6694 32.0069 38.6356 32.0849 38.5706C32.3438 38.3548 32.9032 37.7362 32.7101 36.529C32.6528 36.1711 32.7304 35.676 32.8259 35.2602C32.9099 34.8944 32.6019 34.534 32.2312 34.5933L31.0881 34.7762ZM4.03757 37.2728H6.02463C6.02463 37.1925 6.0224 36.9429 5.92246 36.6431C5.85147 36.4302 5.76 36.2789 5.72776 36.2266C5.66191 36.1198 5.59646 36.0379 5.59128 36.0313L4.02621 37.2556L2.46113 38.4799C2.45631 38.4738 2.4443 38.4583 2.42879 38.4371C2.41622 38.4199 2.38299 38.3741 2.34455 38.3117C2.31372 38.2617 2.22296 38.1119 2.15233 37.9C2.11181 37.7785 2.08074 37.646 2.06408 37.5042C2.04882 37.3744 2.05051 37.2667 2.05051 37.2728H4.03757ZM4.02621 37.2556L5.59128 36.0313C5.54604 35.9735 5.65725 36.1064 5.74633 36.2679C5.79119 36.3493 5.90647 36.5686 5.95926 36.8789C6.01602 37.2126 6.02289 37.8351 5.5751 38.4146L4.00277 37.1996L2.43044 35.9846C1.97732 36.571 1.98304 37.2021 2.04141 37.5453C2.09583 37.8652 2.21551 38.0949 2.26614 38.1867C2.36675 38.3692 2.49502 38.5233 2.46113 38.4799L4.02621 37.2556ZM4.00277 37.1996L5.5751 38.4146C5.10327 39.0252 4.47187 39.1052 4.32758 39.1191C4.22813 39.1287 4.15799 39.1256 4.13859 39.1247C4.11632 39.1235 4.11045 39.1223 4.13417 39.125C4.15833 39.1278 4.1873 39.1316 4.2415 39.1387C4.28989 39.145 4.35582 39.1537 4.4269 39.1619C4.5701 39.1785 4.76103 39.1967 4.97748 39.1992L5.00082 37.2123L5.02417 35.2253C4.91712 35.2241 4.90254 35.213 4.58695 35.1768C4.49152 35.1658 4.23308 35.1356 3.94524 35.1634C3.67948 35.1891 2.95678 35.3035 2.43044 35.9846L4.00277 37.1996ZM5.00082 37.2123L4.97748 39.1992C5.25929 39.2025 5.6605 39.2152 5.93745 39.2306L6.04825 37.2467L6.15905 35.2627C5.81685 35.2436 5.35687 35.2293 5.02417 35.2253L5.00082 37.2123ZM6.04825 37.2467L5.93745 39.2306C6.23209 39.2471 6.45718 39.2731 7.42156 39.2839L7.44366 37.2969L7.46576 35.31C6.60944 35.3005 6.48357 35.2808 6.15905 35.2627L6.04825 37.2467ZM7.44366 37.2969L7.42156 39.2839C8.36133 39.2943 10.0242 39.2906 13.3383 39.2257L13.2993 37.239L13.2604 35.2523C9.96361 35.3169 8.3467 35.3198 7.46576 35.31L7.44366 37.2969ZM13.2993 37.239L13.3383 39.2257C16.6405 39.161 21.5883 39.0343 24.4377 38.9728L24.3948 36.9862L24.352 34.9996C21.4636 35.0619 16.569 35.1875 13.2604 35.2523L13.2993 37.239ZM24.3948 36.9862L24.4377 38.9728C27.2946 38.9111 27.9443 38.9176 28.2946 38.9191L28.303 36.932L28.3113 34.945C27.918 34.9433 27.2328 34.9374 24.352 34.9996L24.3948 36.9862ZM28.303 36.932L28.2946 38.9191C28.805 38.9212 29.2382 38.8888 29.6887 38.8604L29.5638 36.8773L29.4389 34.8942C28.9325 34.926 28.6566 34.9464 28.3113 34.945L28.303 36.932ZM29.5638 36.8773L29.6887 38.8604C30.0482 38.8378 30.287 38.8234 31.0515 38.7826L30.9455 36.7984L30.8396 34.8141C30.0661 34.8555 29.8142 34.8705 29.4389 34.8942L29.5638 36.8773ZM30.9455 36.7984L31.0571 38.7823C31.1875 38.775 31.352 38.7673 31.5373 38.7335L31.1806 36.7787L30.824 34.8239C30.8307 34.8227 30.8411 34.8209 30.8538 34.8188C30.8668 34.8168 30.8799 34.8149 30.8928 34.8132C30.9184 34.8099 30.9358 34.8083 30.9395 34.808C30.9413 34.8079 30.9407 34.8079 30.9367 34.8082C30.9327 34.8085 30.9265 34.8089 30.9173 34.8095C30.8984 34.8107 30.8721 34.8123 30.834 34.8145L30.9455 36.7984ZM31.1806 36.7787L31.5373 38.7335C31.5687 38.7278 31.5969 38.722 31.6074 38.7199C31.6214 38.7171 31.627 38.7159 31.6344 38.7145C31.6454 38.7124 31.6691 38.7079 31.7159 38.7004L31.402 36.7383L31.0881 34.7762C30.9998 34.7903 30.9329 34.8024 30.8772 34.8132C30.8512 34.8182 30.8293 34.8227 30.8192 34.8247C30.8055 34.8275 30.8127 34.826 30.824 34.8239L31.1806 36.7787Z" fill="#D5D4D4"/>
</g>
<path d="M34.4053 30.4353C34.4277 30.4395 34.593 30.512 34.878 30.6342C35.0242 30.6969 35.1808 30.7429 35.3264 30.7841C35.4721 30.8252 35.604 30.8556 35.7095 30.8759C35.815 30.8961 35.8901 30.9054 36 30.9222M33.6326 28.1716C33.5264 28.2305 33.4545 28.2744 33.4096 28.3127C33.3418 28.3704 33.2883 28.4287 33.199 28.5562C33.1243 28.663 32.9988 28.8617 32.9143 29.001C32.8298 29.1404 32.7926 29.216 32.7575 29.2968C32.7225 29.3776 32.6908 29.4612 32.6444 29.6331C32.598 29.805 32.5379 30.0628 32.5039 30.2178C32.4603 30.4163 32.454 30.5945 32.4503 30.8165C32.448 30.9517 32.4801 31.1244 32.5316 31.3716C32.6115 31.7553 32.6994 31.861 32.7654 31.9614C32.8207 32.0453 32.9191 32.0957 33.0694 32.1795C33.1806 32.2416 33.2988 32.2543 33.4624 32.2685C33.6226 32.2824 33.8144 32.2559 33.9688 32.2288C34.116 32.2031 34.2308 32.1431 34.4266 32.03C34.5411 31.9639 34.6624 31.8452 34.7822 31.7302C34.9003 31.617 34.9711 31.5007 35.0815 31.2646C35.1453 31.1283 35.2287 30.8796 35.289 30.6966C35.3494 30.5135 35.3755 30.4 35.3967 30.2862C35.4178 30.1725 35.4332 30.0618 35.4434 29.9343C35.4649 29.6661 35.4597 29.4951 35.4522 29.4446C35.4448 29.3941 35.39 29.1864 35.3138 28.8974C35.2791 28.7657 35.2579 28.7188 35.2374 28.6771C35.2191 28.6396 35.1295 28.5265 34.9931 28.363C34.8379 28.177 34.639 28.0935 34.5413 28.0493C34.4896 28.026 34.4285 28.0151 34.3567 28.0063C34.2523 27.9936 34.1616 28.0023 34.0982 28.0129C33.9591 28.0481 33.8813 28.0801 33.7787 28.1307C33.7225 28.16 33.6581 28.1964 33.5917 28.2339M19.4052 32.1848C19.4195 32.3496 19.4774 32.9094 19.5188 33.0962C19.5249 33.1237 19.5432 33.1465 19.5618 33.1688C19.5805 33.1911 19.6039 33.2108 20.1268 33.2742C20.6497 33.3376 21.6714 33.4443 23.0547 33.5177C24.4379 33.5911 26.1518 33.6281 27.2678 33.6332C28.3837 33.6383 28.85 33.6104 29.241 33.5772C29.632 33.5441 29.9337 33.5065 30.2466 33.4512C30.8774 33.3398 31.2425 33.2339 31.3288 33.1991C31.4969 33.1312 31.6704 32.9937 31.8905 32.796C32.0237 32.6762 32.0981 32.5478 32.1494 32.466C32.2673 32.2784 32.3285 32.0104 32.3714 31.7179C32.4333 31.2959 32.2393 30.8879 32.1106 30.6032C32.0381 30.4429 31.9419 30.3374 31.8663 30.2546L31.8594 30.2469C31.5996 29.9619 31.2566 29.754 30.9745 29.6228C30.7521 29.5194 30.449 29.4587 30.08 29.3949C29.8749 29.3594 29.6257 29.3484 29.4086 29.3388L29.4024 29.3385C29.1839 29.3288 29.005 29.3288 28.6014 29.367C28.1978 29.4051 27.575 29.4813 26.702 29.6525C25.8291 29.8236 24.7248 30.0874 23.7397 30.3536C22.7547 30.6199 21.9223 30.8807 21.3762 31.0649C20.8302 31.2491 20.5959 31.3487 20.4456 31.4157C20.0659 31.5848 19.8296 31.7634 19.5773 31.8863C19.5209 31.9148 19.4959 31.9302 19.4673 31.9493C19.4388 31.9685 19.4075 31.9908 19.4239 32.0248M19.5654 33.2853C19.4843 33.2942 19.3342 33.3448 18.9628 33.412C18.7422 33.4519 18.3461 33.4785 16.6983 33.6126C15.0505 33.7467 12.161 33.9732 10.5444 34.0954C8.92788 34.2177 8.67188 34.2289 8.08597 34.2888C7.50005 34.3487 6.59198 34.457 6.09356 34.5201C5.41745 34.6057 5.28854 34.6463 5.24069 34.6624C5.21833 34.6698 5.20953 34.6965 5.203 34.7639C5.19646 34.8313 5.19492 34.9438 5.1949 35.2318C5.19488 35.5197 5.19641 35.9795 5.19369 36.2416C5.18894 36.6991 5.12872 36.9555 5.10672 37.1071C5.07495 37.3261 5.04595 37.4179 5.03238 37.5112C5.02501 37.5619 5.02036 37.6444 5.0343 37.7278C5.0423 37.7757 5.17335 37.7495 5.30495 37.7689C5.37492 37.7792 5.46686 37.827 5.56303 37.8774C5.60196 37.8978 5.61791 37.9132 5.63145 37.9308C5.64499 37.9485 5.65487 37.9694 5.66028 37.9966C5.6657 38.0238 5.66636 38.0568 5.66396 38.0849C5.66155 38.1131 5.65606 38.1354 5.64654 38.1599C5.62648 38.2114 5.5938 38.2564 5.55876 38.2945C5.52237 38.334 5.46817 38.3595 5.41089 38.3824C5.38148 38.3927 5.3514 38.4004 5.32087 38.4055C5.29034 38.4105 5.26026 38.4126 5.17671 38.4149M19.2813 32.0023C19.2278 31.9988 19.0676 31.9916 18.723 32.0297C18.5949 32.0438 18.4225 32.0482 18.2372 32.0633C18.0519 32.0783 17.8586 32.1005 16.0514 32.2062C14.2441 32.312 10.8288 32.5007 8.78472 32.6432C6.74061 32.7857 6.17117 32.8762 5.75241 32.9524C5.33365 33.0286 5.08283 33.0876 4.93046 33.1255C4.77809 33.1634 4.73177 33.1783 4.70366 33.2003C4.67555 33.2222 4.66705 33.2507 4.65875 33.5044C4.65046 33.7581 4.64263 34.2362 4.63333 34.5593C4.61961 35.0365 4.60269 35.236 4.60157 35.3256C4.59925 35.5119 4.57522 35.6691 4.57194 36.0638C4.57045 36.2422 4.59739 36.3695 4.61805 36.4761C4.64461 36.6132 4.80848 36.6987 4.82698 36.7411C4.83685 36.7637 4.84279 36.7905 4.84402 36.8158C4.84525 36.8412 4.84032 36.8646 4.82962 36.8853C4.75085 36.9685 4.57885 37.0891 4.44432 37.1642C4.41872 37.1751 4.39679 37.1808 4.35657 37.1867M30.4717 31.6741C30.4494 31.6712 30.3607 31.6653 30.104 31.6946C29.8934 31.7187 29.5224 31.7827 29.222 31.8379C28.9217 31.893 28.7039 31.9429 28.5519 31.9823C28.3185 32.0429 28.2208 32.0888 28.1884 32.1137C28.1571 32.1377 28.1417 32.1775 28.1266 32.2165L28.1262 32.2177C28.1182 32.2382 28.1131 32.2609 28.0981 32.6052C28.0831 32.9496 28.0592 33.6152 28.0591 34.3719C28.059 35.1287 28.0835 35.9563 28.1128 36.6223C28.1421 37.2884 28.1754 37.7677 28.1962 38.0427C28.217 38.3177 28.2242 38.3739 28.2349 38.3938C28.2456 38.4137 28.2596 38.3956 28.2726 38.3784C28.3233 38.3112 28.4024 38.2457 28.5635 38.1418C28.7304 38.0343 28.811 38.0268 28.8968 38.0088C28.9759 37.9922 29.07 37.9949 29.1502 37.998C29.2146 38.0006 29.268 38.0258 29.3188 38.0516C29.3695 38.0773 29.4082 38.1148 29.441 38.1493C29.4962 38.2178 29.528 38.2683 29.5492 38.307C29.5598 38.3263 29.5703 38.3451 29.6079 38.3431M29.6039 33.6132C29.5963 33.5991 29.5888 33.585 29.5841 33.5901C29.5793 33.5952 29.5777 33.62 29.5751 33.9934C29.5725 34.3669 29.569 35.0883 29.5753 35.5377C29.5816 35.987 29.5978 36.1424 29.6094 36.2327C29.6209 36.3231 29.6274 36.3437 29.6401 36.3592C29.6528 36.3748 29.6716 36.3848 29.6918 36.379C29.8248 36.3414 29.9042 36.1376 30.0129 36.0516C30.1183 35.9682 30.2067 35.9602 30.2877 35.9432C30.3622 35.9275 30.42 35.9392 30.4651 35.9472C30.4913 35.9519 30.5223 35.9663 30.5517 35.9829C30.5811 35.9995 30.6075 36.0201 30.6313 36.0453C30.6755 36.0999 30.7043 36.1465 30.7245 36.1969C30.737 36.2308 30.754 36.2818 30.8189 36.3151" stroke="#1E1E1E" stroke-width="0.283866" stroke-linecap="round" stroke-linejoin="round"/>
</svg>
