<svg width="40" height="40" viewBox="0 0 40 40" fill="none" xmlns="http://www.w3.org/2000/svg">
<path d="M17.4814 25.1981C17.5049 25.183 17.6017 25.1294 17.7575 25.0811C17.8781 25.0437 17.9871 25.0321 18.1006 25.0193C18.2985 24.9971 18.5695 24.9939 18.9356 25.0105C19.1556 25.0205 19.4435 25.0604 19.8016 25.1208C20.1597 25.1812 20.5789 25.2676 20.8814 25.3384C21.1838 25.4091 21.3568 25.4614 21.7298 25.5961C22.1028 25.7308 22.6707 25.9463 23.354 26.2602C24.0373 26.5741 24.8189 26.9799 25.2982 27.2345C25.7775 27.4891 25.9308 27.5802 26.1248 27.7097C26.3188 27.8393 26.5488 28.0045 26.7014 28.1198C26.9268 28.2901 27.0941 28.4504 27.2702 28.6152C27.3953 28.7323 27.4727 28.8361 27.5681 28.9783C27.7215 29.2069 27.8079 29.3795 27.8246 29.4286C27.8737 29.5731 27.8626 29.8922 27.844 30.0671C27.8271 30.227 27.6204 30.5233 27.456 30.7635C27.3906 30.8591 27.2874 30.9334 27.1071 31.0752C26.9309 31.2138 26.6829 31.3003 26.4123 31.3951C26.183 31.4755 25.9824 31.5041 25.8403 31.5156C25.5089 31.5423 25.3248 31.4934 24.9865 31.414C24.7566 31.36 24.4139 31.2577 24.1824 31.1873C23.9509 31.1168 23.8425 31.076 23.5223 30.9173C23.2021 30.7586 22.6736 30.4832 22.3454 30.3084C22.0171 30.1336 21.9052 30.0676 21.7926 30.0044C21.68 29.9412 21.57 29.8828 21.3383 29.7426C21.1067 29.6023 20.7567 29.3821 20.4991 29.2085C20.2414 29.0349 20.0868 28.9147 19.96 28.8234C19.7431 28.6674 19.6097 28.5868 19.497 28.4812C19.4144 28.4037 19.2871 28.2707 19.1166 28.1147C18.946 27.9587 18.7378 27.7819 18.5847 27.6562C18.3429 27.4577 18.1425 27.2981 17.9473 27.1179C17.6482 26.8421 17.5779 26.6981 17.5243 26.6182C17.455 26.515 17.4027 26.4179 17.3599 26.312C17.3035 26.1726 17.2921 26.0701 17.2767 25.9409C17.2591 25.7932 17.2597 25.6634 17.2609 25.4612C17.2612 25.4146 17.2718 25.3902 17.2801 25.3681C17.2885 25.3459 17.2974 25.3269 17.3128 25.3007C17.3282 25.2746 17.3498 25.2419 17.4115 25.2286" stroke="#1E1E1E" stroke-width="0.294992" stroke-linecap="round" stroke-linejoin="round"/>
<path d="M28.9092 33.1018C28.9092 33.098 28.8915 33.1163 28.8501 33.1771C28.7974 33.2773 28.7559 33.3696 28.7354 33.4265C28.7263 33.4528 28.7201 33.4739 28.7137 33.5224" stroke="#1E1E1E" stroke-width="0.294992" stroke-linecap="round" stroke-linejoin="round"/>
<path d="M27.6507 30.6217C27.6447 30.6422 27.6229 30.7105 27.5907 30.8621C27.5541 31.0344 27.5753 31.242 27.6027 31.3695C27.62 31.4501 27.6895 31.6073 27.7782 31.8085C27.838 31.9441 27.9384 32.0896 28.0776 32.285C28.1481 32.3839 28.2324 32.4715 28.3196 32.5578C28.4068 32.6441 28.498 32.7236 28.6326 32.822C28.7672 32.9204 28.9426 33.0352 29.0657 33.111C29.2515 33.2254 29.4119 33.29 29.5611 33.348C29.647 33.3814 29.7515 33.4048 29.8848 33.4317C29.9782 33.4505 30.1191 33.4536 30.2897 33.4559C30.4785 33.4583 30.6776 33.3983 30.8224 33.3432C30.9923 33.2785 31.1066 33.1559 31.2452 33.0201C31.4908 32.7795 31.5562 32.5813 31.5816 32.507C31.6124 32.4172 31.6023 32.3127 31.5867 32.1963C31.5757 32.1144 31.5474 32.05 31.531 32.0075C31.5135 31.9619 31.4779 31.9043 31.4134 31.8094C31.3138 31.663 31.2004 31.5257 31.126 31.4328C31.081 31.3767 30.9562 31.2544 30.7468 31.0586C30.5603 30.8844 30.4242 30.7989 30.3261 30.7268C30.1509 30.5981 30.0235 30.4957 29.9635 30.4622C29.8787 30.4148 29.7958 30.3802 29.7206 30.3471C29.4666 30.2354 29.2338 30.189 29.099 30.1691C28.9383 30.1454 28.6298 30.1725 28.4694 30.2056C28.3097 30.2386 28.2116 30.2907 28.1183 30.3252C28.025 30.3597 27.905 30.4161 27.8197 30.4667C27.7822 30.4889 27.76 30.5243 27.7387 30.5548C27.7184 30.5888 27.7028 30.6245 27.6929 30.6586C27.6884 30.675 27.685 30.6898 27.6699 30.7422" stroke="#1E1E1E" stroke-width="0.294992" stroke-linecap="round" stroke-linejoin="round"/>
<path d="M25.1885 30.5867C25.1878 30.5918 25.1871 30.5968 25.1853 30.6113C25.1834 30.6257 25.1805 30.6493 25.2003 30.6886C25.2201 30.7279 25.2628 30.7822 25.3742 30.9468C25.4856 31.1113 25.6645 31.3844 25.8586 31.6746C26.0526 31.9648 26.2565 32.2638 26.4138 32.5027C26.5711 32.7416 26.6756 32.9113 26.8196 33.1251C26.9636 33.3389 27.1439 33.5917 27.6387 34.1476C28.1336 34.7035 28.9376 35.555 29.5409 36.1485C30.1442 36.7421 30.5224 37.0519 30.7644 37.2446C31.256 37.636 31.4426 37.7577 31.5258 37.8127C31.6272 37.8796 31.6949 37.9062 31.741 37.9188C31.7643 37.9252 31.7899 37.9185 31.8152 37.9031C31.9475 37.8225 32.0581 37.6762 32.1813 37.6022C32.2694 37.5493 32.3529 37.5326 32.4121 37.521C32.4999 37.5037 32.5939 37.505 32.6676 37.5091C32.73 37.5125 32.7798 37.5427 32.8255 37.5704C32.8716 37.5984 32.9121 37.6333 32.9502 37.6695C33.0326 37.7709 33.106 37.8821 33.1472 37.9423C33.167 37.9701 33.1847 37.9923 33.2097 38.0236" stroke="#1E1E1E" stroke-width="0.294992" stroke-linecap="round" stroke-linejoin="round"/>
<path d="M30.8987 33.3333C30.8987 33.3356 30.9002 33.3543 30.9099 33.3888C30.9456 33.5155 31.19 33.6669 31.3984 33.9148C31.5286 34.0697 31.6987 34.2917 31.8224 34.4535C31.9461 34.6152 32.0157 34.7121 32.1758 34.9162C32.3359 35.1203 32.5843 35.4287 32.729 35.605C32.9598 35.8863 33.0529 35.9783 33.1142 36.026C33.1269 36.0359 33.1473 36.0263 33.1666 36.0161C33.2578 35.9682 33.3796 35.8885 33.5448 35.7938C33.5947 35.7652 33.6406 35.7545 33.6972 35.7442C33.7657 35.7316 33.8263 35.7436 33.867 35.7554C33.9441 35.7777 34.0598 35.8589 34.1437 35.9278C34.2037 36.0094 34.2467 36.0838 34.2649 36.1152C34.2746 36.13 34.2852 36.1427 34.3253 36.1638" stroke="#1E1E1E" stroke-width="0.294992" stroke-linecap="round" stroke-linejoin="round"/>
<path d="M17.3243 26.4548C17.3243 26.4524 17.3077 26.4663 17.1454 26.6153C16.9997 26.7492 16.7253 27.0015 16.2473 27.4165C15.7694 27.8316 15.0961 28.4018 13.9632 29.5076C12.8302 30.6133 11.2581 32.2373 10.1339 33.4811C9.00982 34.7248 8.38141 35.5391 7.93918 36.1382C7.49696 36.7373 7.25997 37.0966 7.10547 37.3388C6.95097 37.581 6.88614 37.6952 6.85925 37.7575C6.83235 37.8198 6.84536 37.8266 6.86686 37.8249C7.03699 37.8117 7.24356 37.6842 7.39862 37.6442C7.49901 37.6183 7.64626 37.5924 7.78612 37.5703C7.92599 37.5481 8.05473 37.5334 8.15802 37.5258C8.33493 37.5127 8.44318 37.5247 8.54956 37.5511C8.908 37.6401 9.03129 37.7265 9.09023 37.7621C9.14961 37.8056 9.21273 37.8686 9.26859 37.9358C9.28052 37.949 9.29055 37.9577 9.30617 37.9454" stroke="#1E1E1E" stroke-width="0.294992" stroke-linecap="round" stroke-linejoin="round"/>
<path d="M17.2557 25.3015C17.2548 25.3011 17.2539 25.3007 17.2467 25.3014C17.2395 25.3021 17.2261 25.3038 16.619 25.785C16.0119 26.2661 14.8115 27.2265 13.4033 28.4544C11.9951 29.6822 10.4156 31.1482 9.34596 32.193C8.27631 33.2377 7.76444 33.8167 7.40356 34.2458C7.04268 34.6749 6.84829 34.9365 6.64313 35.2371C6.43797 35.5376 6.22791 35.8692 6.11643 36.0466C6.00494 36.224 5.99839 36.2371 6.00023 36.249C6.00208 36.261 6.01253 36.2714 6.02508 36.2758C6.05054 36.2849 6.18114 36.232 6.40168 36.153C6.5067 36.1154 6.60225 36.0962 6.7146 36.0718C6.82694 36.0473 6.95435 36.0216 7.12086 36.0006C7.28737 35.9796 7.48913 35.964 7.60766 35.956C7.75526 35.946 7.79886 35.9492 7.83271 35.9545C7.88086 35.9621 8.00851 36.0123 8.17527 36.0808C8.27066 36.1271 8.39413 36.218 8.5421 36.3324C8.59657 36.3739 8.60917 36.3817 8.64449 36.3992" stroke="#1E1E1E" stroke-width="0.294992" stroke-linecap="round" stroke-linejoin="round"/>
<g style="mix-blend-mode:plus-darker" opacity="0.55">
<path d="M8.58655 37.5682H4.45667V37.6667C4.45667 37.7722 4.47542 37.8775 4.52928 37.9682C4.70824 38.2693 5.25115 38.9449 6.52161 38.9449C6.89829 38.9449 7.39353 39.1058 7.80462 39.272C8.16616 39.4183 8.58655 39.1614 8.58655 38.7713V37.5682ZM30.549 37.1503L30.5687 39.2151L30.549 37.1503ZM33.0087 37.1863L32.7407 39.2338L32.7785 39.2387L32.8164 39.2423L33.0087 37.1863ZM33.9797 37.306L33.5783 39.3315L33.5894 39.3337L33.6005 39.3358L33.9797 37.306ZM34.4117 35.2831L34.0458 39.3967L34.1439 39.4054C34.249 39.4148 34.3555 39.4054 34.4506 39.3598C34.7664 39.2082 35.4874 38.7273 35.6 37.4618C35.6333 37.0866 35.8375 36.6076 36.0395 36.2128C36.2172 35.8657 35.9985 35.4242 35.61 35.3896L34.4117 35.2831ZM6.52161 37.5682H8.58655C8.58655 37.5608 8.58742 37.637 8.58027 37.7283C8.57219 37.8314 8.55585 37.9399 8.52871 38.0518C8.4778 38.2618 8.40461 38.4174 8.36459 38.4961C8.32356 38.5768 8.28641 38.6361 8.2703 38.6613C8.25172 38.6904 8.23732 38.7112 8.23185 38.719L6.54094 37.5337L4.85004 36.3485C4.83612 36.3683 4.75733 36.4787 4.68345 36.6239C4.64102 36.7074 4.56662 36.8662 4.51511 37.0787C4.45412 37.3302 4.45667 37.5355 4.45667 37.5682H6.52161ZM6.54094 37.5337L8.23185 38.719C8.21653 38.7408 8.13359 38.8606 8.0008 38.9897C7.86763 39.1192 7.72563 39.2197 7.58673 39.2951C7.33171 39.4335 7.12885 39.4642 7.09269 39.4694L6.79596 37.4259L6.49922 35.3824C6.26607 35.4163 5.94536 35.487 5.61693 35.6653C5.20205 35.8904 4.96681 36.1819 4.85004 36.3485L6.54094 37.5337ZM6.79596 37.4259L7.09269 39.4694C7.07057 39.4726 7.07344 39.4712 7.12265 39.4676C7.16838 39.4643 7.22717 39.4609 7.31255 39.4564C7.47351 39.4478 7.70558 39.4363 7.96536 39.4158L7.80268 37.3573L7.64 35.2987C7.44422 35.3142 7.27143 35.3228 7.09217 35.3324C6.95132 35.3399 6.71012 35.3518 6.49922 35.3824L6.79596 37.4259ZM7.80268 37.3573L7.96536 39.4158C8.4381 39.3784 9.09247 39.2999 9.56542 39.2531L9.3618 37.1982L9.15817 35.1433C8.51646 35.2069 8.07837 35.2641 7.64 35.2987L7.80268 37.3573ZM9.3618 37.1982L9.56542 39.2531C10.0911 39.201 10.6044 39.1635 11.043 39.1445L10.9537 37.0815L10.8643 35.0185C10.3376 35.0413 9.7472 35.085 9.15817 35.1433L9.3618 37.1982ZM10.9537 37.0815L11.043 39.1445C11.4708 39.126 11.8243 39.1256 12.2704 39.1317L12.2986 37.067L12.3269 35.0022C11.8419 34.9956 11.4019 34.9952 10.8643 35.0185L10.9537 37.0815ZM12.2986 37.067L12.2704 39.1317C12.7275 39.138 13.2172 39.1503 13.5561 39.1685L13.6671 37.1066L13.778 35.0446C13.3558 35.0219 12.8009 35.0087 12.3269 35.0022L12.2986 37.067ZM13.6671 37.1066L13.5561 39.1685C13.9082 39.1875 14.1815 39.2183 15.4171 39.2464L15.4639 37.182L15.5108 35.1176C14.3595 35.0914 14.187 35.0666 13.778 35.0446L13.6671 37.1066ZM15.4639 37.182L15.4171 39.2464C16.6326 39.274 18.8082 39.2995 21.8129 39.2897L21.8062 37.2248L21.7994 35.1599C18.8206 35.1696 16.682 35.1441 15.5108 35.1176L15.4639 37.182ZM21.8062 37.2248L21.8129 39.2897C24.8133 39.28 28.5878 39.234 30.5687 39.2151L30.549 37.1503L30.5294 35.0855C28.5301 35.1045 24.7826 35.1501 21.7994 35.1599L21.8062 37.2248ZM30.549 37.1503L30.5687 39.2151C32.6881 39.195 32.716 39.2305 32.7407 39.2338L33.0087 37.1863L33.2766 35.1388C32.9178 35.0918 32.6003 35.0657 30.5294 35.0855L30.549 37.1503ZM33.0087 37.1863L32.8164 39.2423C33.3785 39.2948 33.5104 39.3181 33.5783 39.3315L33.9797 37.306L34.381 35.2804C34.0918 35.2231 33.7812 35.1846 33.201 35.1303L33.0087 37.1863ZM33.9797 37.306L33.6005 39.3358C33.7413 39.3621 33.8677 39.3809 34.0458 39.3967L34.2288 37.3399L34.4117 35.2831C34.383 35.2805 34.3761 35.2794 34.3793 35.2798C34.383 35.2804 34.3812 35.2803 34.3588 35.2761L33.9797 37.306Z" fill="#979797"/>
</g>
</svg>
