<svg width="40" height="40" viewBox="0 0 40 40" fill="none" xmlns="http://www.w3.org/2000/svg">
<g clip-path="url(#clip0_901_13)">
<path d="M20.4772 15.1155C20.4681 15.1155 20.459 15.1155 20.4544 15.2166C20.4497 15.3176 20.4497 15.5198 20.455 15.7484" stroke="#1E1E1E" stroke-width="0.251887" stroke-linecap="round" stroke-linejoin="round"/>
<path d="M19.8884 11.1695C19.8587 11.1695 19.829 11.1695 19.8012 11.1753C19.7733 11.1811 19.7482 11.1928 19.7185 11.2162C19.5266 11.3682 19.3583 11.6671 19.248 11.8671C19.1932 11.9665 19.1474 12.1736 19.0898 12.4206C19.0562 12.5647 19.0447 12.8498 19.0371 13.2572C19.032 13.5247 19.0713 13.6924 19.1031 13.8285C19.1881 14.1917 19.3848 14.559 19.466 14.6902C19.5085 14.7589 19.6198 14.8295 19.747 14.9121C19.8402 14.9726 19.9174 14.9958 19.9879 15.0165C20.1532 15.0649 20.4799 15.0517 20.7318 15.036C20.8604 15.028 20.9971 14.9436 21.1558 14.8383C21.2697 14.7627 21.3658 14.6389 21.454 14.5265C21.6019 14.3381 21.6531 14.1393 21.7321 13.8147C21.7903 13.5757 21.773 13.2583 21.7429 12.8067C21.7205 12.471 21.5914 12.1456 21.4719 11.8722C21.3572 11.6099 21.1444 11.3595 20.9692 11.1964C20.9086 11.14 20.8514 11.1124 20.7883 11.085C20.6449 11.0225 20.5155 11.007 20.2592 11.0002C20.1681 10.9977 20.1067 11.024 20.0478 11.0461C19.9874 11.0732 19.916 11.1141 19.8184 11.1803C19.7611 11.2207 19.6878 11.2747 19.6122 11.3304" stroke="#1E1E1E" stroke-width="0.251887" stroke-linecap="round" stroke-linejoin="round"/>
<path d="M20.4362 13.2332C20.4329 13.2332 20.4554 13.2477 20.5519 13.2821C20.7375 13.3482 20.9036 13.3563 21.1026 13.3606C21.265 13.3641 21.552 13.3564 21.7138 13.3532C21.9037 13.3477 21.986 13.3358 22.0765 13.3187C22.1136 13.3113 22.1329 13.3064 22.1547 13.3013" stroke="#1E1E1E" stroke-width="0.251887" stroke-linecap="round" stroke-linejoin="round"/>
<path d="M20.2533 25.1279C20.2489 25.1246 20.2444 25.1213 20.2379 25.1425C20.2176 25.2082 20.1924 25.4875 20.0865 26.3818C20.0077 27.046 19.8554 28.1348 19.7434 28.8744C19.6314 29.6141 19.5586 29.9708 19.5074 30.2672C19.4176 30.7871 19.3532 31.2573 19.2712 31.7307C19.2304 31.9667 19.217 32.1984 19.227 33.1602C19.2369 34.1219 19.2773 35.8078 19.311 36.8439C19.3448 37.88 19.3708 38.2152 19.3842 38.4233C19.4116 38.8486 19.4183 39.0571 19.4069 39.1336C19.3907 39.2413 19.0876 38.9755 18.5966 38.7813C18.3268 38.6746 18.0308 38.589 17.8423 38.5686C17.3437 38.6063 16.6645 38.7424 16.3873 38.8133C16.3503 38.8299 16.3209 38.8484 16.2709 38.8907" stroke="#1E1E1E" stroke-width="0.251887" stroke-linecap="round" stroke-linejoin="round"/>
<path d="M21.2876 25.097C21.2835 25.0903 21.2769 25.1415 21.2996 25.4604C21.3184 25.7254 21.3855 26.197 21.4635 26.7712C21.5415 27.3454 21.6369 28.0071 21.6952 28.428C21.7536 28.8488 21.7721 29.0088 21.8257 29.2908C21.8793 29.5728 21.9675 29.9721 22.0242 30.2606C22.1132 30.7129 22.1531 31.0016 22.2082 31.3346C22.2439 31.5502 22.2674 31.8647 22.2831 32.1029C22.2987 32.3412 22.2987 32.4947 22.2808 33.0042C22.2628 33.5137 22.2269 34.3746 22.2132 34.9165C22.1995 35.4584 22.2091 35.6552 22.2429 36.1659C22.2768 36.6766 22.3345 37.4952 22.367 37.9468C22.4038 38.4581 22.4182 38.5544 22.4443 38.6164C22.457 38.6468 22.4922 38.6621 22.5219 38.6798C22.5516 38.6975 22.5806 38.7139 22.612 38.7207C22.6434 38.7275 22.6762 38.7241 22.7326 38.7013C23.02 38.5848 23.2254 38.4663 23.428 38.4047C23.5486 38.368 23.6569 38.3557 23.7539 38.3471C24.1724 38.3097 24.6312 38.4524 24.6989 38.4859C24.7341 38.5073 24.771 38.5378 24.8346 38.6167C24.8983 38.6956 24.9875 38.822 25.1488 38.9684" stroke="#1E1E1E" stroke-width="0.251887" stroke-linecap="round" stroke-linejoin="round"/>
<path d="M20.4922 15.8096C20.401 15.7973 20.2921 15.7776 20.077 15.7816C19.8796 15.7851 19.6457 15.8756 19.3908 15.9681C19.2159 16.0316 19.0381 16.1592 18.8875 16.2582C18.7909 16.3217 18.6194 16.5105 18.3864 16.7653C18.262 16.9011 18.2147 16.9947 18.1766 17.0824C18.1457 17.1537 18.1271 17.2428 18.107 17.3417C18.0912 17.4195 18.0905 17.5324 18.1067 17.7494C18.1171 17.8898 18.158 18.089 18.2489 18.4695C18.3398 18.85 18.4861 19.405 18.7075 20.24C18.9289 21.075 19.221 22.173 19.4202 22.8814C19.6194 23.5898 19.7169 23.8753 19.7881 24.0708C19.9594 24.5413 20.0806 24.7326 20.2042 24.8992C20.233 24.938 20.2575 24.9588 20.2795 24.9776C20.3897 25.0712 20.5872 25.1236 20.7151 25.1582C20.8206 25.1867 20.9174 25.1604 20.9735 25.1449C21.1063 25.1082 21.2149 25.0087 21.2947 24.931C21.4252 24.8038 21.5263 24.496 21.6295 24.2713C21.6679 24.1875 21.7247 24.0449 21.8836 23.5204C22.0426 22.9958 22.3003 22.0928 22.4712 21.3772C22.6422 20.6616 22.7186 20.1607 22.8042 19.6582C22.8897 19.1557 22.9819 18.6668 23.0377 18.2891C23.0935 17.9114 23.11 17.6597 23.1189 17.4222C23.1358 16.9694 23.1226 16.6794 23.1088 16.5628C23.0917 16.4182 22.988 16.2776 22.9069 16.1647C22.8258 16.0518 22.7261 15.9916 22.6165 15.9251C22.4746 15.8391 22.2003 15.7923 21.742 15.7323C21.4961 15.7 21.2506 15.7243 21.0468 15.7289C20.8946 15.7364 20.7519 15.75 20.6167 15.7636C20.56 15.7683 20.5277 15.7683 20.4922 15.7661" stroke="#1E1E1E" stroke-width="0.251887" stroke-linecap="round" stroke-linejoin="round"/>
<path d="M22.8091 15.9775C22.8034 15.9775 22.826 15.9782 22.8837 15.991C23.1505 16.0499 23.49 16.4781 23.6268 16.6366C23.6748 16.6923 23.7296 16.7946 23.8456 17.0177C23.9262 17.1728 24.0366 17.4203 24.1313 17.6647C24.226 17.9092 24.298 18.145 24.3511 18.34C24.4437 18.6803 24.5047 18.9736 24.5711 19.2495C24.6344 19.5126 24.6725 19.7644 24.7086 19.9822C24.766 20.3284 24.8101 20.5415 24.8205 20.6123C24.8251 20.6439 24.824 20.6672 24.8097 20.6814C24.6926 20.7982 24.2921 20.7063 23.9109 20.7017C23.6985 20.6992 23.4474 20.7002 23.2157 20.6904C22.984 20.6807 22.7792 20.6612 22.5459 20.6227C22.0545 20.5414 21.7662 20.4598 21.6925 20.4374C21.4797 20.3729 21.3413 20.3527 21.0964 20.3387C21.0565 20.3365 21.0714 20.3061 21.0903 20.2708C21.1348 20.1882 21.1761 20.0891 21.207 19.9957C21.2341 19.914 21.2368 19.8082 21.2367 19.7001C21.2307 19.6333 21.211 19.5641 21.1841 19.4839C21.1723 19.4494 21.1643 19.4276 21.1667 19.394" stroke="#1E1E1E" stroke-width="0.251887" stroke-linecap="round" stroke-linejoin="round"/>
<path d="M18.2085 17.0142C18.1505 17.0959 18.0313 17.2689 17.9388 17.4612C17.8585 17.628 17.7178 17.9391 17.5914 18.238C17.4651 18.537 17.3592 18.8153 17.2598 19.1167C17.1605 19.4182 17.0709 19.7343 17.0106 19.9792C16.9502 20.2241 16.9218 20.3882 16.9031 20.5212C16.8709 20.7505 16.8628 20.8905 16.8541 20.9625C16.8364 21.1095 16.8561 21.3208 16.8736 21.4096C16.8766 21.4246 16.8841 21.4354 16.8924 21.4464C16.9007 21.4575 16.9115 21.468 16.9244 21.4764C16.9372 21.4848 16.9518 21.4908 16.9655 21.4951C17.0437 21.5197 17.2963 21.4948 17.4724 21.4598C17.6061 21.4332 17.7652 21.3562 17.9215 21.3121C17.9923 21.2921 18.044 21.2703 18.1253 21.2438C18.2066 21.2174 18.3154 21.1853 18.4513 21.1452C18.5872 21.1051 18.7469 21.0581 18.9301 20.9924C19.1133 20.9267 19.3153 20.8438 19.4476 20.7886C19.637 20.7097 19.755 20.6656 19.9244 20.6072C20.0347 20.5691 20.1902 20.5018 20.2899 20.4646C20.4881 20.3908 20.5733 20.3949 20.6422 20.3716C20.6583 20.3662 20.6688 20.3596 20.6748 20.3494C20.6877 20.3273 20.6819 20.2865 20.6789 20.2162C20.674 20.0991 20.6666 19.9197 20.669 19.7427C20.6703 19.6443 20.6859 19.5987 20.6974 19.5645C20.7402 19.4792 20.7909 19.4036 20.8155 19.3771C20.8275 19.3658 20.8388 19.359 20.8527 19.352" stroke="#1E1E1E" stroke-width="0.251887" stroke-linecap="round" stroke-linejoin="round"/>
<g style="mix-blend-mode:plus-darker" opacity="0.55">
<path d="M17.4109 40.8793L14.5891 38.7643L14.5387 38.8315C14.4847 38.9036 14.4436 38.9851 14.4339 39.0747C14.402 39.3721 14.4269 40.1117 15.295 40.7624C15.5523 40.9553 15.8083 41.3188 16.004 41.643C16.1762 41.928 16.595 41.9678 16.7947 41.7013L17.4109 40.8793ZM16.1129 39.7754L16.1076 38.0122L16.1129 39.7754ZM17.3289 39.8572L17.3625 38.0943L17.3289 39.8572ZM23.6559 39.9286L23.5641 41.6895L23.596 41.6911L23.6278 41.6916L23.6559 39.9286ZM24.7496 39.9302L24.7677 41.6934L24.7806 41.6932L24.7496 39.9302ZM25.0861 38.1772L24.7791 41.6903L24.8629 41.6976C24.9526 41.7054 25.0436 41.6973 25.1247 41.6582C25.3942 41.5284 26.0092 41.1168 26.1036 40.0361C26.1316 39.7157 26.3053 39.3064 26.4773 38.969C26.6285 38.6724 26.4413 38.2957 26.1094 38.2667L25.0861 38.1772ZM16 39.8218L17.4109 40.8793C17.4235 40.8624 17.3521 40.9627 17.2469 41.0656C17.1241 41.1858 16.9781 41.2919 16.8118 41.3735L16.0347 39.7908L15.2576 38.208C14.8415 38.4124 14.624 38.7178 14.5891 38.7643L16 39.8218ZM16.0347 39.7908L16.8118 41.3735C16.6609 41.4476 16.5253 41.4859 16.4239 41.5068C16.3172 41.5288 16.2147 41.5383 16.1182 41.5386L16.1129 39.7754L16.1076 38.0122C15.8758 38.0129 15.5705 38.0544 15.2576 38.208L16.0347 39.7908ZM16.1129 39.7754L16.1182 41.5386C16.047 41.5388 16.0023 41.5318 16.0553 41.5378C16.0823 41.5408 16.1893 41.5539 16.2888 41.5641C16.5193 41.5878 16.8322 41.6112 17.2953 41.62L17.3289 39.8572L17.3625 38.0943C16.9941 38.0872 16.7792 38.0695 16.6498 38.0562C16.5693 38.0479 16.5382 38.0435 16.4521 38.0337C16.3919 38.0269 16.259 38.0117 16.1076 38.0122L16.1129 39.7754ZM17.3289 39.8572L17.2953 41.62C17.5579 41.6251 17.7962 41.6296 18.5924 41.6245L18.5811 39.8613L18.5699 38.0982C17.8014 38.1031 17.5931 38.0987 17.3625 38.0943L17.3289 39.8572ZM18.5811 39.8613L18.5924 41.6245C19.3927 41.6194 20.6978 41.604 21.6576 41.6164L21.6804 39.8533L21.7032 38.0903C20.6982 38.0773 19.3343 38.0933 18.5699 38.0982L18.5811 39.8613ZM21.6804 39.8533L21.6576 41.6164C22.5966 41.6285 23.1432 41.6675 23.5641 41.6895L23.6559 39.9286L23.7476 38.1678C23.3625 38.1478 22.7291 38.1035 21.7032 38.0903L21.6804 39.8533ZM23.6559 39.9286L23.6278 41.6916C24.0664 41.6986 24.3335 41.6994 24.5074 41.6981C24.5956 41.6974 24.6588 41.6961 24.7071 41.695C24.7284 41.6944 24.7507 41.6938 24.7598 41.6936C24.7727 41.6933 24.7722 41.6933 24.7677 41.6934L24.7496 39.9302L24.7315 38.1671C24.6941 38.1675 24.6346 38.1693 24.6208 38.1696C24.5906 38.1703 24.5471 38.1712 24.48 38.1717C24.3435 38.1728 24.1062 38.1724 23.6839 38.1657L23.6559 39.9286ZM24.7496 39.9302L24.7806 41.6932C24.7846 41.6931 24.7884 41.693 24.7917 41.693C24.7951 41.6929 24.7979 41.6929 24.8007 41.6928C24.8062 41.6927 24.8101 41.6927 24.8133 41.6926C24.8198 41.6925 24.8215 41.6925 24.8207 41.6925C24.8191 41.6925 24.8035 41.6924 24.7791 41.6903L24.9326 39.9338L25.0861 38.1772C24.9069 38.1616 24.7479 38.1668 24.7187 38.1673L24.7496 39.9302Z" fill="#979797"/>
</g>
</g>
<defs>
<clipPath id="clip0_901_13">
<rect width="40" height="40" fill="white"/>
</clipPath>
</defs>
</svg>
