<svg width="40" height="40" viewBox="0 0 40 40" fill="none" xmlns="http://www.w3.org/2000/svg">
<g clip-path="url(#clip0_901_26)">
<path d="M20.7882 15.0857C20.7789 15.0857 20.7697 15.0857 20.7649 15.1891C20.7601 15.2926 20.7601 15.4995 20.7655 15.7334" stroke="#1E1E1E" stroke-width="0.257783" stroke-linecap="round" stroke-linejoin="round"/>
<path d="M20.3026 11.1016C20.2722 11.1016 20.2419 11.1016 20.2133 11.1076C20.1848 11.1136 20.1591 11.1255 20.1288 11.1495C19.9324 11.3051 19.7601 11.6109 19.6472 11.8156C19.5911 11.9174 19.5443 12.1293 19.4853 12.3821C19.4509 12.5296 19.4392 12.8213 19.4314 13.2383C19.4262 13.5121 19.4664 13.6837 19.4989 13.8229C19.5859 14.1946 19.7873 14.5705 19.8703 14.7047C19.9138 14.7751 20.0277 14.8474 20.1579 14.9319C20.2533 14.9938 20.3323 15.0175 20.4044 15.0387C20.5736 15.0883 20.908 15.0747 21.1658 15.0587C21.2974 15.0505 21.4373 14.9641 21.5997 14.8564C21.7163 14.779 21.8146 14.6522 21.9049 14.5373C22.0563 14.3445 22.1086 14.141 22.1895 13.8088C22.249 13.5643 22.2314 13.2394 22.2005 12.7772C22.1776 12.4336 22.0454 12.1006 21.9231 11.8208C21.8058 11.5524 21.588 11.2961 21.4087 11.1292C21.3467 11.0715 21.2881 11.0433 21.2236 11.0152C21.0768 10.9512 20.9444 10.9354 20.6821 10.9284C20.5889 10.9259 20.526 10.9527 20.4658 10.9754C20.404 11.0031 20.3308 11.045 20.231 11.1128C20.1723 11.1541 20.0973 11.2094 20.0199 11.2664" stroke="#1E1E1E" stroke-width="0.257783" stroke-linecap="round" stroke-linejoin="round"/>
<path d="M20.9117 12.5212C20.9227 12.4989 21.0939 12.241 21.3485 11.8518C21.5575 11.532 21.6904 11.2451 21.7866 11.0374C21.8227 10.9573 21.8329 10.9286 21.8442 10.9007C21.8555 10.8727 21.8677 10.8463 21.891 10.8062" stroke="#1E1E1E" stroke-width="0.257783" stroke-linecap="round" stroke-linejoin="round"/>
<path d="M21.5353 4.00195C21.5347 4.00195 21.5341 4.00195 21.5242 4.00795C21.4948 4.02567 21.4271 4.29587 21.3516 4.71568C21.2849 5.08679 21.3182 5.34717 21.3391 5.46831C21.3608 5.59362 21.4113 5.67692 21.427 5.72593C21.4343 5.74883 21.434 5.76955 21.4281 5.79313C21.4222 5.81671 21.4092 5.84298 21.2082 6.11645C21.0072 6.38992 20.6185 6.90978 20.3212 7.35602C20.0238 7.80225 19.8295 8.1591 19.6277 8.55787C19.4259 8.95664 19.2224 9.38652 19.1038 9.64572C18.9852 9.90493 18.9576 9.98043 18.9328 10.0568C18.908 10.1331 18.8869 10.208 18.8204 10.6517C18.7539 11.0955 18.6425 11.9058 18.5753 12.4579C18.5081 13.01 18.4884 13.2793 18.4595 13.564C18.4306 13.8487 18.3931 14.1406 18.3648 14.5755C18.3366 15.0105 18.3187 15.5796 18.3161 15.9654C18.3135 16.3513 18.3267 16.5366 18.3368 16.6567C18.347 16.7768 18.3536 16.8261 18.3577 16.9198C18.3617 17.0135 18.363 17.1503 18.3802 17.293" stroke="#1E1E1E" stroke-width="0.257783" stroke-linecap="round" stroke-linejoin="round"/>
<path d="M21.7044 4.00109C21.6917 3.99586 21.7057 4.00926 21.7426 4.04575C21.7798 4.08268 21.7885 4.13389 21.8023 4.17887C21.8204 4.23772 21.8378 4.3396 21.8575 4.5525C21.8913 4.91977 21.8753 5.19653 21.8635 5.29959C21.8492 5.42384 21.8057 5.57902 21.7715 5.72287C21.7582 5.77838 21.769 5.80151 21.7874 5.82651C21.8755 5.94647 21.9709 6.0279 22.023 6.10634C22.0611 6.16358 22.1572 6.36259 22.2935 6.64205C22.4611 6.98611 22.5405 7.22092 22.6228 7.41612C22.6881 7.57084 22.8102 7.83459 22.8896 8.01606C22.969 8.19753 23.0043 8.28772 23.0416 8.39629C23.079 8.50485 23.1173 8.62907 23.1868 8.84807C23.2563 9.06707 23.3557 9.3771 23.4252 9.62579C23.4947 9.87448 23.5312 10.0524 23.5616 10.2342C23.592 10.416 23.6151 10.5962 23.6478 10.8319C23.6805 11.0677 23.7221 11.3535 23.7532 11.6182C23.7842 11.8828 23.8034 12.1175 23.8139 12.5397C23.8245 12.9619 23.8259 13.5645 23.824 13.9212C23.821 14.4981 23.8 14.6152 23.7955 14.7682C23.789 14.9884 23.7791 15.1302 23.7722 15.3389C23.7664 15.5124 23.7179 15.7612 23.6852 15.942C23.6603 16.0614 23.6343 16.1879 23.6283 16.2673C23.627 16.2877 23.6252 16.3086 23.6 16.3613" stroke="#1E1E1E" stroke-width="0.257783" stroke-linecap="round" stroke-linejoin="round"/>
<path d="M20.7588 25.5601C20.7542 25.5567 20.7497 25.5533 20.743 25.575C20.7222 25.6423 20.6964 25.9281 20.588 26.8433C20.5074 27.5231 20.3515 28.6374 20.2369 29.3943C20.1223 30.1512 20.0478 30.5164 19.9954 30.8197C19.9035 31.3518 19.8375 31.833 19.7537 32.3174C19.7119 32.559 19.6982 32.7961 19.7084 33.7804C19.7186 34.7646 19.7599 36.49 19.7944 37.5503C19.829 38.6107 19.8556 38.9537 19.8693 39.1667C19.8973 39.6019 19.9042 39.8153 19.8925 39.8936C19.876 40.0039 19.5658 39.7318 19.0633 39.5331C18.7872 39.4239 18.4842 39.3363 18.2913 39.3153C17.781 39.3539 17.0859 39.4932 16.8023 39.5658C16.7643 39.5828 16.7343 39.6017 16.6831 39.645" stroke="#1E1E1E" stroke-width="0.257783" stroke-linecap="round" stroke-linejoin="round"/>
<path d="M21.5802 25.5154C21.576 25.5086 21.5693 25.561 21.5925 25.8873C21.6117 26.1585 21.6804 26.6412 21.7602 27.2288C21.84 27.8165 21.9376 28.4937 21.9974 28.9244C22.0571 29.3551 22.076 29.5188 22.1309 29.8074C22.1857 30.0961 22.276 30.5047 22.3341 30.7999C22.4251 31.2628 22.4659 31.5583 22.5223 31.8991C22.5588 32.1198 22.5829 32.4416 22.5989 32.6854C22.615 32.9292 22.615 33.0863 22.5966 33.6077C22.5783 34.1292 22.5415 35.0102 22.5275 35.5648C22.5135 36.1194 22.5233 36.3208 22.5579 36.8435C22.5925 37.3661 22.6516 38.2039 22.6849 38.666C22.7225 39.1893 22.7372 39.2879 22.7639 39.3513C22.777 39.3824 22.813 39.398 22.8434 39.4162C22.8737 39.4343 22.9035 39.4511 22.9356 39.458C22.9677 39.465 23.0013 39.4616 23.059 39.4382C23.3531 39.3189 23.5633 39.1977 23.7707 39.1346C23.894 39.0971 24.0049 39.0845 24.1042 39.0757C24.5325 39.0374 25.002 39.1834 25.0713 39.2177C25.1073 39.2397 25.1451 39.2709 25.2102 39.3516C25.2753 39.4324 25.3667 39.5617 25.5318 39.7116" stroke="#1E1E1E" stroke-width="0.257783" stroke-linecap="round" stroke-linejoin="round"/>
<path d="M20.8608 15.9602C20.7674 15.9477 20.6561 15.9275 20.4359 15.9315C20.2339 15.9352 19.9945 16.0278 19.7336 16.1225C19.5546 16.1875 19.3727 16.318 19.2186 16.4193C19.1197 16.4844 18.9442 16.6775 18.7057 16.9383C18.5785 17.0773 18.53 17.1731 18.491 17.2629C18.4594 17.3357 18.4404 17.427 18.4198 17.5282C18.4036 17.6079 18.4029 17.7233 18.4195 17.9454C18.4302 18.0891 18.472 18.293 18.565 18.6824C18.658 19.0718 18.8077 19.6398 19.0343 20.4943C19.2609 21.3488 19.5599 22.4726 19.7637 23.1976C19.9676 23.9225 20.0673 24.2147 20.1402 24.4148C20.3155 24.8963 20.4395 25.092 20.5661 25.2626C20.5955 25.3023 20.6206 25.3236 20.6432 25.3428C20.7559 25.4386 20.9581 25.4922 21.0889 25.5276C21.1969 25.5568 21.2959 25.5299 21.3534 25.514C21.4893 25.4765 21.6005 25.3747 21.6821 25.2951C21.8157 25.165 21.9192 24.8499 22.0247 24.6199C22.064 24.5343 22.1221 24.3883 22.2848 23.8515C22.4475 23.3146 22.7112 22.3905 22.8862 21.6582C23.0611 20.9258 23.1394 20.4132 23.2269 19.8989C23.3144 19.3846 23.4088 18.8843 23.4659 18.4978C23.523 18.1112 23.5399 17.8536 23.549 17.6106C23.5663 17.1472 23.5527 16.8504 23.5386 16.7311C23.5211 16.5831 23.4151 16.4391 23.332 16.3236C23.249 16.2081 23.147 16.1465 23.0348 16.0785C22.8896 15.9904 22.6089 15.9426 22.1398 15.8811C21.8882 15.8481 21.6369 15.873 21.4283 15.8777C21.2726 15.8853 21.1265 15.8992 20.9882 15.9132C20.9302 15.918 20.8971 15.918 20.8608 15.9158" stroke="#1E1E1E" stroke-width="0.257783" stroke-linecap="round" stroke-linejoin="round"/>
<g style="mix-blend-mode:plus-darker" opacity="0.55">
<path d="M16.1576 41.9648L15.8424 38.3696L15.7567 38.3771C15.6649 38.3852 15.5746 38.4095 15.4998 38.4634C15.2513 38.6421 14.7046 39.1663 14.8016 40.2723C14.8304 40.6002 14.7281 41.0436 14.6148 41.4142C14.5151 41.74 14.7708 42.0864 15.1104 42.0566L16.1576 41.9648ZM16.8066 40.1666L16.7565 41.9703L16.8066 40.1666ZM17.3639 40.1899L17.304 41.9933L17.3639 40.1899ZM25.2256 38.2851V41.8941H25.3116C25.4037 41.8941 25.4958 41.8777 25.575 41.8306C25.8382 41.6742 26.4285 41.1998 26.4285 40.0896C26.4285 39.7604 26.5691 39.3277 26.7144 38.9684C26.8422 38.6525 26.6177 38.2851 26.2768 38.2851H25.2256ZM16 40.1672L16.1576 41.9648C16.1269 41.9675 16.1035 41.9687 16.0981 41.969C16.089 41.9694 16.0826 41.9697 16.0802 41.9698C16.0754 41.97 16.0743 41.97 16.0789 41.9698C16.0873 41.9696 16.1031 41.9693 16.1267 41.9689C16.173 41.9682 16.238 41.9675 16.3124 41.9671C16.4654 41.9663 16.6354 41.967 16.7565 41.9703L16.8066 40.1666L16.8568 38.3628C16.5577 38.3545 15.9919 38.3565 15.8424 38.3696L16 40.1672ZM16.8066 40.1666L16.7565 41.9703C16.8104 41.9718 16.8679 41.9746 16.963 41.9791C17.0538 41.9835 17.1662 41.9888 17.304 41.9933L17.3639 40.1899L17.4237 38.3864C17.3137 38.3827 17.2232 38.3785 17.1352 38.3743C17.0515 38.3703 16.9543 38.3655 16.8568 38.3628L16.8066 40.1666ZM17.3639 40.1899L17.304 41.9933C17.3037 41.9933 17.3041 41.9933 17.306 41.9934C17.3088 41.9935 17.3102 41.9936 17.3156 41.9938C17.325 41.9941 17.3381 41.9946 17.3547 41.9952C17.3879 41.9962 17.427 41.9971 17.4804 41.9979C17.5844 41.9993 17.7548 42.0005 18.0608 42.0008L18.0627 40.1963L18.0646 38.3919C17.7624 38.3915 17.6113 38.3904 17.5319 38.3893C17.4625 38.3883 17.4655 38.3878 17.4237 38.3864L17.3639 40.1899ZM18.0627 40.1963L18.0608 42.0008C18.672 42.0015 19.8579 41.9997 20.758 41.9924L20.7435 40.188L20.729 38.3836C19.8437 38.3907 18.6695 38.3925 18.0646 38.3919L18.0627 40.1963ZM20.7435 40.188L20.758 41.9924C21.66 41.9852 22.2485 41.9725 22.689 41.9562L22.6225 40.153L22.5559 38.3497C22.1632 38.3642 21.6124 38.3765 20.729 38.3836L20.7435 40.188ZM22.6225 40.153L22.689 41.9562C23.2116 41.9369 23.3069 41.9243 23.688 41.9134L23.6361 40.1096L23.5841 38.3059C23.2641 38.3151 22.8665 38.3383 22.5559 38.3497L22.6225 40.153ZM23.6361 40.1096L23.688 41.9134C24.0143 41.904 24.4346 41.9023 24.6944 41.9002L24.68 40.0958L24.6656 38.2914C24.4333 38.2932 23.959 38.2951 23.5841 38.3059L23.6361 40.1096ZM24.68 40.0958L24.6944 41.9002C24.8215 41.8992 24.8984 41.8981 24.9536 41.897C24.9816 41.8965 25.0025 41.896 25.0186 41.8955C25.0354 41.8951 25.0413 41.895 25.0483 41.8948L25.0142 40.0907L24.9802 38.2865C24.9587 38.2869 24.9394 38.2874 24.9266 38.2878C24.9131 38.2881 24.9002 38.2884 24.8825 38.2888C24.8463 38.2895 24.7846 38.2904 24.6656 38.2914L24.68 40.0958ZM25.0142 40.0907L25.0483 41.8948C25.0842 41.8942 25.1461 41.8941 25.2256 41.8941V40.0896V38.2851C25.1596 38.2851 25.0581 38.285 24.9802 38.2865L25.0142 40.0907Z" fill="#979797"/>
</g>
</g>
<defs>
<clipPath id="clip0_901_26">
<rect width="40" height="40" fill="white"/>
</clipPath>
</defs>
</svg>
