<svg width="40" height="40" viewBox="0 0 40 40" fill="none" xmlns="http://www.w3.org/2000/svg">
<path d="M19.3589 30.3223C19.3274 30.3365 19.2447 30.3712 19.1939 30.401C19.1425 30.4311 19.1085 30.5628 19.0558 30.7195C18.9755 30.9581 18.9827 31.3941 19.0088 31.6646C19.0224 31.805 19.0966 31.9831 19.1824 32.2007C19.2812 32.4515 19.444 32.7178 19.6517 33.0231C19.7677 33.1937 19.9321 33.3769 20.0688 33.5233C20.2054 33.6698 20.3162 33.7692 20.4908 33.9098C20.6654 34.0504 20.9006 34.2292 21.2677 34.4634C21.6348 34.6976 22.1266 34.9817 22.4947 35.1782C22.8628 35.3748 23.0922 35.4751 23.4363 35.594C23.7805 35.7129 24.2324 35.8473 24.5198 35.9261C24.8073 36.005 24.9164 36.0243 25.1878 36.0392C25.4591 36.0542 25.8893 36.0642 26.2438 36.0618C26.5984 36.0594 26.8643 36.0443 27.088 36.0236C27.4862 35.9867 27.7899 35.9212 28.0358 35.8584C28.2686 35.7989 28.565 35.6634 28.8949 35.5011C29.1426 35.3791 29.3056 35.2414 29.4624 35.105C29.825 34.7896 29.9727 34.5108 30.1101 34.2455C30.2761 33.925 30.3034 33.6085 30.3447 33.3585C30.4023 33.0104 30.3581 32.4887 30.3245 32.3182C30.2984 32.1856 30.1886 32.0372 30.1057 31.9304C30.0821 31.9067 30.0521 31.8807 30.025 31.8594C29.9979 31.838 29.9746 31.8221 29.8948 31.7854" stroke="#1E1E1E" stroke-width="0.26497" stroke-linecap="round" stroke-linejoin="round"/>
<path d="M28.2632 34.3258C28.1852 34.3075 27.8546 34.2321 27.1571 34.067C26.7606 33.9731 26.2437 33.7604 25.7133 33.5569C25.1114 33.3261 24.5486 33.3081 24.3993 33.296C24.3327 33.2905 24.2842 33.2918 24.3587 33.6917C24.4333 34.0916 24.6322 34.8914 24.7861 35.6309C24.94 36.3703 25.0428 37.0253 25.106 37.4119C25.2095 38.046 25.2491 38.1787 25.2717 38.2246C25.3598 38.4032 25.7378 37.9079 25.9853 37.7796C26.0754 37.7328 26.1678 37.7206 26.249 37.7085C26.3315 37.6962 26.4383 37.6968 26.5519 37.7041C26.6025 37.7074 26.6373 37.7261 26.6678 37.7456C26.7708 37.8415 26.842 37.9386 26.8883 38.0158C26.9096 38.0532 26.9267 38.0871 26.9508 38.105" stroke="#1E1E1E" stroke-width="0.26497" stroke-linecap="round" stroke-linejoin="round"/>
<path d="M33.4769 31.4453C33.4655 31.4424 33.4413 31.4359 33.4022 31.4272C33.3594 31.4177 33.1848 31.436 32.9398 31.4648C32.8453 31.476 32.8118 31.4835 32.6945 31.519C32.5771 31.5545 32.3771 31.6186 32.2023 31.6877C32.0274 31.7567 31.8839 31.8287 31.7762 31.8879C31.598 31.9858 31.4814 32.0771 31.3674 32.1751C31.2219 32.3001 31.1028 32.4354 30.9922 32.5723C30.839 32.7619 30.7304 32.9457 30.6571 33.0753C30.576 33.2185 30.5279 33.3468 30.4937 33.4558C30.4491 33.5977 30.4133 33.7871 30.3794 33.9764C30.3332 34.234 30.3654 34.4121 30.3957 34.5659C30.4378 34.7799 30.5785 35.0025 30.6581 35.1081C30.7401 35.2171 30.8292 35.2869 30.8732 35.3222C30.9269 35.3652 30.9826 35.393 31.0315 35.4147C31.1713 35.4767 31.3263 35.4825 31.5487 35.4806C31.7014 35.4793 31.8159 35.456 31.9656 35.4142C32.084 35.3811 32.2854 35.3127 32.4097 35.2698C32.5758 35.2123 32.6683 35.1571 32.8077 35.0568C32.8974 34.9924 33.0154 34.8869 33.128 34.7831C33.2406 34.6792 33.3417 34.5768 33.4635 34.4359C33.5853 34.295 33.7248 34.1186 33.8124 34.0039C33.9346 33.8439 34.0322 33.6481 34.1398 33.4191C34.2116 33.2661 34.2354 32.9742 34.2467 32.7772C34.2554 32.6259 34.1809 32.3908 34.1154 32.2181C34.0327 31.9998 33.9362 31.8325 33.8868 31.7569C33.833 31.6746 33.7656 31.6047 33.7107 31.5515C33.6047 31.4883 33.4776 31.4428 33.425 31.4324C33.4017 31.4289 33.3855 31.4288 33.3546 31.4322" stroke="#1E1E1E" stroke-width="0.26497" stroke-linecap="round" stroke-linejoin="round"/>
<path d="M32.559 33.7214C32.5665 33.7435 32.6765 33.8926 32.8609 34.1142C33.0338 34.322 33.1522 34.425 33.1915 34.4573C33.2409 34.498 33.3443 34.5532 33.488 34.625C33.6323 34.6876 33.7597 34.7332 33.8485 34.7594C33.884 34.7696 33.8999 34.7735 33.9443 34.7732" stroke="#1E1E1E" stroke-width="0.26497" stroke-linecap="round" stroke-linejoin="round"/>
<path d="M19.19 30.3413C19.179 30.3594 19.0906 30.4893 18.8396 30.8087C18.6788 31.0135 18.4203 31.2808 17.9505 31.762C17.4806 32.2432 16.7997 32.924 16.1043 33.5501C15.4089 34.1761 14.7196 34.7268 14.3468 35.0223C13.974 35.3178 13.9385 35.3414 13.7714 35.4665C13.6042 35.5916 13.3064 35.8174 13.1406 35.9446C12.9485 36.0919 12.7486 36.244 12.4715 36.4462C12.3474 36.5369 12.2964 36.5635 12.2399 36.5808C12.1125 36.6199 11.9479 36.5709 11.6818 36.5089C11.4925 36.4647 11.1889 36.4127 10.9621 36.3721C10.7353 36.3315 10.5934 36.3086 10.3267 36.2454C10.0599 36.1823 9.67258 36.0797 9.17845 35.9729C8.68433 35.866 8.09513 35.758 7.42574 35.609C6.75635 35.46 6.02462 35.2732 5.56348 35.1616C4.9362 35.0099 4.72087 34.9766 4.65601 34.9708C4.6303 34.9686 4.62114 34.9986 4.61968 35.0317C4.61631 35.1084 4.69835 35.4073 4.80138 35.814C4.8504 36.0075 4.85424 36.2295 4.85089 36.5848C4.84756 36.938 4.78993 37.216 4.73735 37.4035C4.69005 37.5722 4.61961 37.681 4.57069 37.7583C4.40729 37.9533 4.2247 38.1398 4.13667 38.2357C4.10009 38.2735 4.07995 38.2896 4.03796 38.3147" stroke="#1E1E1E" stroke-width="0.26497" stroke-linecap="round" stroke-linejoin="round"/>
<path d="M18.9351 31.9447C18.9325 31.9405 18.9299 31.9363 18.9189 31.9387C18.8873 31.9455 18.7822 32.0958 18.5153 32.4387C18.4017 32.5844 18.2013 32.7864 17.9831 33.0008C17.7649 33.2152 17.5263 33.4287 17.1205 33.7486C16.7146 34.0685 16.1487 34.4882 15.6938 34.8429C15.239 35.1976 14.9123 35.4746 14.3794 35.8858C13.8465 36.2969 13.1174 36.8338 12.7008 37.1372C12.2053 37.4982 12.0969 37.5607 12.0517 37.5795C12.0284 37.5892 12.0015 37.5916 11.9722 37.5937C11.9429 37.5959 11.9113 37.5959 11.439 37.526C10.9668 37.456 10.055 37.3161 9.19216 37.1441C8.32937 36.972 7.54328 36.7721 7.08323 36.6485C6.62318 36.5249 6.51298 36.4836 6.38098 36.4414C5.90941 36.2904 5.7839 36.2561 5.65391 36.2183C5.62368 36.2095 5.60257 36.2009 5.59196 36.2087C5.58136 36.2165 5.58201 36.2407 5.58678 36.2679C5.59686 36.3254 5.63447 36.4759 5.67663 36.7174C5.7178 36.9532 5.71127 37.1918 5.70097 37.4505C5.6886 37.7614 5.64595 37.9673 5.62722 38.0436C5.60547 38.1321 5.55241 38.2572 5.47341 38.4244C5.26029 38.8755 4.98694 39.1578 4.95205 39.1916C4.93362 39.2067 4.9137 39.2178 4.89207 39.2265C4.87045 39.2353 4.84771 39.2415 4.8092 39.2542" stroke="#1E1E1E" stroke-width="0.26497" stroke-linecap="round" stroke-linejoin="round"/>
<path d="M19.1525 30.3643C19.1525 30.3639 19.1525 30.3634 19.1595 30.3585C19.1665 30.3537 19.1806 30.3444 19.2167 30.3394C19.3097 30.3265 19.3864 30.3384 19.4186 30.3487C19.4845 30.3699 19.5533 30.4128 19.7189 30.5336C19.7887 30.5847 19.8943 30.6367 20.0302 30.7103C20.1497 30.7752 20.3424 30.8791 20.6036 31C20.8222 31.1011 20.9668 31.1498 21.1446 31.2346C21.285 31.3016 21.5277 31.4166 21.7222 31.5007C21.9168 31.5849 22.0559 31.6346 22.145 31.6645C22.2341 31.6944 22.2691 31.7031 22.3795 31.7285C22.4899 31.7539 22.6746 31.7957 22.974 31.8619C23.2734 31.9281 23.6818 32.0175 24.111 32.0867C24.5402 32.1558 24.9778 32.2021 25.3094 32.2286C25.641 32.2551 25.8534 32.2605 26.0584 32.2574C26.2633 32.2543 26.4545 32.2427 26.7513 32.2053C27.0481 32.1679 27.4448 32.1052 27.841 32.0359C28.2372 31.9666 28.6208 31.8927 28.8321 31.8514C29.0707 31.8049 29.2037 31.7819 29.3888 31.7556C29.6276 31.7328 29.7553 31.7293 29.7895 31.732C29.8063 31.7352 29.8218 31.7419 29.8244 31.7829" stroke="#1E1E1E" stroke-width="0.26497" stroke-linecap="round" stroke-linejoin="round"/>
<g style="mix-blend-mode:plus-darker" opacity="0.55">
<path d="M5.85479 37.9769H2.14521V38.0653C2.14521 38.1601 2.16205 38.2547 2.21043 38.3361C2.37118 38.6066 2.85884 39.2134 4 39.2134C4.33835 39.2134 4.78319 39.358 5.15244 39.5073C5.47719 39.6387 5.85479 39.4079 5.85479 39.0575V37.9769ZM6.45609 37.7646L6.5429 39.6174L6.45609 37.7646ZM8.64816 37.6311L8.5469 35.7791L8.64816 37.6311ZM30.4977 37.298L30.4476 35.4439L30.4476 35.4439L30.4977 37.298ZM32.6035 37.1706L32.4319 35.3238L32.4047 35.3263L32.3775 35.3296L32.6035 37.1706ZM33.8582 37.147L33.8664 35.2922L33.8626 35.2922L33.8582 37.147ZM34.9856 35.3001L34.9532 39.0096L35.0416 39.0104C35.1363 39.0112 35.231 38.9952 35.3129 38.9475C35.5848 38.7891 36.1959 38.3068 36.2059 37.1657C36.2088 36.8273 36.3572 36.3838 36.5098 36.0159C36.644 35.6923 36.4166 35.3127 36.0662 35.3096L34.9856 35.3001ZM4 37.9769H5.85479C5.85479 37.9285 5.86417 38.1511 5.79971 38.4028C5.71803 38.7218 5.54701 39.021 5.29742 39.257L4.02322 37.9091L2.74903 36.5613C2.1063 37.1689 2.14521 37.9384 2.14521 37.9769H4ZM4.02322 37.9091L5.29742 39.257C5.23198 39.3188 5.13638 39.3998 5.01012 39.478C4.89011 39.5523 4.77896 39.6015 4.69004 39.6341C4.53372 39.6915 4.41457 39.7085 4.40301 39.7103C4.37337 39.7148 4.41491 39.7073 4.63676 39.6956L4.53935 37.8434L4.44195 35.9912C4.21734 36.003 4.01243 36.0173 3.84215 36.0434C3.70478 36.0644 3.19611 36.1386 2.74903 36.5613L4.02322 37.9091ZM4.53935 37.8434L4.63676 39.6956C5.11013 39.6707 5.83277 39.6506 6.5429 39.6174L6.45609 37.7646L6.36928 35.9118C5.82896 35.9371 4.86149 35.9691 4.44195 35.9912L4.53935 37.8434ZM6.45609 37.7646L6.5429 39.6174C7.5099 39.572 8.32295 39.5064 8.74942 39.4831L8.64816 37.6311L8.5469 35.7791C7.88225 35.8154 7.4138 35.8629 6.36928 35.9118L6.45609 37.7646ZM8.64816 37.6311L8.74942 39.4831C9.15615 39.4609 9.33715 39.4354 10.0829 39.4037L10.0042 37.5506L9.92549 35.6974C9.2158 35.7276 8.73136 35.769 8.5469 35.7791L8.64816 37.6311ZM10.0042 37.5506L10.0829 39.4037C10.733 39.3761 11.9631 39.3397 12.9507 39.2944L12.8657 37.4416L12.7808 35.5888C11.7256 35.6371 10.7308 35.6632 9.92549 35.6974L10.0042 37.5506ZM12.8657 37.4416L12.9507 39.2944C14.0124 39.2458 14.8546 39.187 16.2111 39.1536L16.1655 37.2993L16.1199 35.4451C14.7127 35.4797 13.7618 35.5438 12.7808 35.5888L12.8657 37.4416ZM16.1655 37.2993L16.2111 39.1536C17.5678 39.1202 19.3873 39.1155 20.3709 39.1154L20.3708 37.2606L20.3707 35.4058C19.3875 35.4059 17.527 35.4105 16.1199 35.4451L16.1655 37.2993ZM20.3708 37.2606L20.3709 39.1154C21.3357 39.1153 21.3922 39.1197 22.0585 39.1337L22.0975 37.2793L22.1365 35.425C21.4583 35.4107 21.3727 35.4057 20.3707 35.4058L20.3708 37.2606ZM22.0975 37.2793L22.0585 39.1337C22.7338 39.1479 24.0088 39.1714 24.6956 39.1817L24.7234 37.3272L24.7513 35.4726C24.0732 35.4624 22.8057 35.439 22.1365 35.425L22.0975 37.2793ZM24.7234 37.3272L24.6956 39.1817C25.4029 39.1924 25.4779 39.1885 26.1013 39.1824L26.0833 37.3277L26.0653 35.473C25.4439 35.479 25.4088 35.4824 24.7513 35.4726L24.7234 37.3272ZM26.0833 37.3277L26.1013 39.1824C26.7202 39.1764 27.9041 39.1681 28.727 39.1657L28.7214 37.3109L28.7159 35.4561C27.8837 35.4586 26.6913 35.4669 26.0653 35.473L26.0833 37.3277ZM28.7214 37.3109L28.727 39.1657C29.5304 39.1633 30.0004 39.167 30.5479 39.1522L30.4977 37.298L30.4476 35.4439C29.9593 35.4571 29.5675 35.4535 28.7159 35.4561L28.7214 37.3109ZM30.4977 37.298L30.5479 39.1522C31.6993 39.121 32.5058 39.0513 32.8296 39.0116L32.6035 37.1706L32.3775 35.3296C32.2007 35.3513 31.5164 35.415 30.4476 35.4439L30.4977 37.298ZM32.6035 37.1706L32.7751 39.0174C32.871 39.0085 33.1697 39.0001 33.8538 39.0017L33.8582 37.147L33.8626 35.2922C33.2319 35.2907 32.7399 35.2951 32.4319 35.3238L32.6035 37.1706ZM33.8582 37.147L33.85 39.0017C34.1984 39.0033 34.5862 39.0064 34.9532 39.0096L34.9694 37.1549L34.9856 35.3001C34.6176 35.2969 34.2232 35.2938 33.8664 35.2922L33.8582 37.147Z" fill="#979797"/>
</g>
</svg>
