<svg width="130" height="130" viewBox="0 0 130 130" fill="none" xmlns="http://www.w3.org/2000/svg">
<rect width="130" height="130" fill="white"/>
<path d="M35.8912 99.0873C35.1598 97.518 36.4358 101.494 36.5454 101.781C36.7474 102.308 38.2099 105.772 37.7096 105.102C36.6239 103.649 35.484 102.182 34.5224 100.646C33.0064 98.2231 35.0851 97.5938 36.9945 96.0841C44.2329 90.361 50.737 83.815 58.0722 78.208C61.1841 75.8292 64.2751 73.5634 67.7344 71.7179C68.7806 71.1598 70.0236 70.1639 71.2187 69.9531" stroke="#450D59" stroke-width="3" stroke-linecap="round" stroke-linejoin="round"/>
<path d="M73.8144 69.8689C72.3748 69.8689 75.5894 74.6198 75.9016 75.2283C77.4777 78.3 79.0442 81.4838 80.0728 84.787C81.5097 89.4014 83.3084 93.881 84.8023 98.4807C85.5801 100.875 85.1664 102.825 87.8333 102.825C90.0828 102.825 92.3526 102.758 94.5939 102.563C95.0801 102.521 97.3605 102.435 95.8822 102.14" stroke="#450D59" stroke-width="3" stroke-linecap="round" stroke-linejoin="round"/>
<path d="M69.1335 71.0199C68.5737 69.8315 79.8109 64.1003 80.594 63.6514C82.7288 62.4276 84.8535 61.1547 87.0369 60.0173C87.6481 59.6989 87.2385 59.7107 86.8361 59.8448" stroke="#450D59" stroke-width="3" stroke-linecap="round" stroke-linejoin="round"/>
<path d="M91.253 51.0043C84.5862 48.3579 83.0033 66.7117 92.2743 62.0361C95.766 60.2751 96.1278 55.3453 94.3261 52.2259C93.5016 50.7983 90.0347 48.0374 88.2077 49.4069" stroke="#450D59" stroke-width="3" stroke-linecap="round" stroke-linejoin="round"/>
<path d="M84.2378 46.2251C83.069 47.2718 84.97 50.7225 85.3996 51.6362C86.2598 53.4658 88.7177 55.5637 89.1121 57.4843" stroke="#450D59" stroke-width="3" stroke-linecap="round" stroke-linejoin="round"/>
<path d="M81.7372 62.6193C81.4758 62.5011 82.0361 73.8578 82.0717 75.2617C82.1578 78.654 82.1254 88.835 82.1254 85.4416" stroke="#450D59" stroke-width="3" stroke-linecap="round" stroke-linejoin="round"/>
<path d="M81.1914 25.6018C80.9777 25.1939 80.5535 24.6826 80.1965 25.2565C77.6136 29.4086 78.3957 36.6714 78.3215 41.25C78.1986 48.8405 78.612 71.6142 78.612 64.0227" stroke="#450D59" stroke-width="3" stroke-linecap="round" stroke-linejoin="round"/>
</svg>
