<svg width="130" height="130" viewBox="0 0 130 130" fill="none" xmlns="http://www.w3.org/2000/svg">
<rect width="130" height="130" fill="white"/>
<path d="M28.4322 95.6228C26.8407 95.8533 27.7537 106.08 28.0197 107.627C28.8604 112.519 27.9583 97.5646 26.5258 92.8125C25.314 88.7925 36.9252 85.1919 39.8588 83.3889C48.969 77.7896 56.9802 71.833 65.3086 65.2747" stroke="#450D59" stroke-width="4" stroke-linecap="round" stroke-linejoin="round"/>
<path d="M65.2031 64.6606C65.2031 63.7772 67.3909 64.2211 67.8453 64.2194C77.0988 64.1835 86.068 63.5414 95.2519 62.4775C97.6488 62.1998 102.164 60.964 103.282 63.9356C104.945 68.3571 105.183 73.2196 105.435 77.8801C105.704 82.8551 106.24 88.1856 105.362 93.1253C105.174 94.1833 104.325 96.9666 105.218 97.9366C106.588 99.4226 111.991 97.2625 113.808 97.1774" stroke="#450D59" stroke-width="4" stroke-linecap="round" stroke-linejoin="round"/>
<path d="M63.982 44.4633C63.971 42.7975 63.9557 41.7965 63.9026 44.3879C63.7861 50.0655 63.6956 55.7376 64.2134 61.3989C64.7199 66.9369 64.0865 63.248 64.0865 60.1665" stroke="#450D59" stroke-width="4" stroke-linecap="round" stroke-linejoin="round"/>
<path d="M56.4568 21C47.8822 21.389 52.2511 45.4599 64.7677 40.7415C75.6695 36.6318 65.9881 15.9259 56.2825 24.7233" stroke="#450D59" stroke-width="4" stroke-linecap="round" stroke-linejoin="round"/>
<path d="M59.1032 32.6533C56.9121 30.7979 64.7671 31.5453 65.563 31.5523C67.6745 31.5707 75.2592 30.6801 75.607 33.3196" stroke="#450D59" stroke-width="4" stroke-linecap="round" stroke-linejoin="round"/>
<path d="M20.9046 49.3493C1.51794 49.3493 59.6278 47.3796 78.9883 46.3721C86.0393 46.0052 94.7941 43.1545 101.803 44.5286" stroke="#450D59" stroke-width="4" stroke-linecap="round" stroke-linejoin="round"/>
</svg>
