<svg width="130" height="130" viewBox="0 0 130 130" fill="none" xmlns="http://www.w3.org/2000/svg">
<rect width="130" height="130" fill="white"/>
<path d="M69.8263 68.6066C64.3517 69.6479 67.7915 86.4021 75.2344 82.1147C79.7956 79.4872 80.8176 72.6987 77.4207 68.8146C76.1675 67.3818 70.0653 62.2765 68.1073 64.7164" stroke="#450D59" stroke-width="3" stroke-linecap="round" stroke-linejoin="round"/>
<path d="M76.7659 78.8913C80.005 77.7154 84.7576 74.842 86.137 71.6459C88.7613 65.5651 83.0633 58.7155 80.2165 54.0373C77.4484 49.4884 74.9623 48.1952 69.6052 48.0089C63.7136 47.804 59.7104 51.1735 55.1732 54.4723C50.1261 58.1419 44.812 61.7083 39.3838 64.7831C34.0777 67.7888 30.0775 72.1037 25.7003 76.2533C22.9668 78.8446 23.5495 79.718 27.3021 79.718C30.0098 79.718 32.7737 79.4952 35.4124 78.8517C35.8625 78.742 38.4224 77.7322 38.0937 78.1376" stroke="#450D59" stroke-width="3" stroke-linecap="round" stroke-linejoin="round"/>
<path d="M75 72.6065C75 70.5486 78.2409 69.6244 79.8435 69" stroke="#450D59" stroke-width="3" stroke-linecap="round" stroke-linejoin="round"/>
<path d="M76.2484 81.0309C71.2475 79.8224 86.3983 79.2385 91.529 78.8571C96.1024 78.5171 100.752 77.2056 105.342 77.2056" stroke="#450D59" stroke-width="3" stroke-linecap="round" stroke-linejoin="round"/>
</svg>
