<svg width="130" height="130" viewBox="0 0 130 130" fill="none" xmlns="http://www.w3.org/2000/svg">
<rect width="130" height="130" fill="white"/>
<path d="M18 43.5974C20.1203 43.0101 35.511 41.0765 35.7601 42.5302C36.2875 45.6091 35.1349 49.408 34.9055 52.4887C34.4678 58.3659 34.5773 64.3722 34.7022 70.2635C34.9541 82.1394 44.9847 88.2117 55.9704 88.7977C69.8132 89.5361 84.8495 86.7746 89.242 71.6174" stroke="#450D59" stroke-width="5.61216" stroke-linecap="round" stroke-linejoin="round"/>
<path d="M92.9387 48.8232C84.5297 52.8884 87.382 72.4699 98.533 70.16C106.391 68.5323 107.542 58.3445 104.916 52.2041C104.201 50.5301 97.3278 40.5457 94.7248 44.9252" stroke="#450D59" stroke-width="5.61216" stroke-linecap="round" stroke-linejoin="round"/>
<path d="M98.7656 59.0493C103.169 59.0493 107.698 60.3105 112.075 59.5136" stroke="#450D59" stroke-width="5.61216" stroke-linecap="round" stroke-linejoin="round"/>
<path d="M82.5563 78.9484C81.8185 78.8964 80.9347 77.7032 80.4645 77.2676C74.2332 71.4943 67.5315 66.1443 60.4639 61.4298C53.2551 56.6211 44.9487 52.739 36.6661 50.169C36.0527 49.9787 28.3741 47.8346 31.8976 48.0023" stroke="#450D59" stroke-width="5.61216" stroke-linecap="round" stroke-linejoin="round"/>
</svg>
