<svg width="130" height="130" viewBox="0 0 130 130" fill="none" xmlns="http://www.w3.org/2000/svg">
<rect width="130" height="130" fill="white"/>
<path d="M69.1776 72.8778C67.3966 72.9944 66.0766 74.9716 64.8499 75.9362C61.862 78.2855 57.8775 79.9067 55.2594 82.5905C53.8575 84.0276 56.6981 83.9801 57.8254 84.1991C62.5518 85.1174 66.8227 86.8365 70.7575 89.3168C71.9321 90.0573 74.0419 91.6426 75.4028 90.4522C79.2677 87.0716 83.9033 84.3842 88.555 81.9418C91.1496 80.5795 95.9858 78.1167 95.9858 74.9117" stroke="#450D59" stroke-width="3" stroke-linecap="round" stroke-linejoin="round"/>
<path d="M66.5988 66.2126C67.4755 66.2126 68.9067 70.7605 69.1552 71.3138C70.5468 74.4125 72.2785 77.039 74.2394 79.8391C75.7427 81.9857 65.9612 88.0362 64.3645 89.1828C62.6629 90.4046 59.9769 91.9392 59.1438 93.8612C58.8302 94.5848 58.9892 92.2763 58.5825 91.5899C55.2316 85.9353 47.328 78.3778 39.6758 78.3778" stroke="#450D59" stroke-width="3" stroke-linecap="round" stroke-linejoin="round"/>
<path d="M67.7228 52.3334C65.5632 53.4194 67.0278 62.99 67.0339 64.9014C67.0357 65.4711 67.5961 70.8308 67.9409 70.2269" stroke="#450D59" stroke-width="3" stroke-linecap="round" stroke-linejoin="round"/>
<path d="M64.8074 37.2966C64.1952 36.9376 63.7273 36.8955 63.5572 37.6047C62.3913 42.4669 63.4865 50.8626 70.2558 51.9577C77.96 53.2041 78.3459 44.0761 76.011 39.969C74.1812 36.7504 68.2096 31.8555 63.9004 35.0266" stroke="#450D59" stroke-width="3" stroke-linecap="round" stroke-linejoin="round"/>
<path d="M66.0832 41.0138C65.6687 44.0395 70.6206 44.6928 70.8211 41.5233C70.8881 40.4629 70.3421 41.906 70.4945 42.4497C71.0764 44.5248 73.964 42.585 74.5792 41.7908" stroke="#450D59" stroke-width="3" stroke-linecap="round" stroke-linejoin="round"/>
<path d="M64.7737 62.3276C64.9908 62.3276 63.4788 62.9807 63.1103 63.2612C59.1495 66.2761 55.7726 69.8666 51.9022 72.9778C47.4229 76.5783 42.678 79.8711 38 83.2605" stroke="#450D59" stroke-width="3" stroke-linecap="round" stroke-linejoin="round"/>
<path d="M65.2118 63.3634C64.8557 63.2548 64.7119 63.0276 65.1767 62.9974C68.1443 62.8042 71.2859 64.9358 73.5509 66.3406C82.1114 71.6501 88.5163 79.4149 98.0016 83.5193" stroke="#450D59" stroke-width="3" stroke-linecap="round" stroke-linejoin="round"/>
</svg>
