<svg width="130" height="130" viewBox="0 0 130 130" fill="none" xmlns="http://www.w3.org/2000/svg">
<rect width="130" height="130" fill="white"/>
<path d="M26.9415 71.7534C25.8053 71.1007 27.1817 77.1142 27.2443 78.0488C27.5292 82.305 27.2514 78.3314 27.0265 76.6273C26.9363 75.9443 25.7814 69.0246 26.0368 68.9065C27.0444 68.4404 28.5814 68.5793 29.6499 68.5732C32.3041 68.5581 34.7388 68.3213 37.2454 67.4207" stroke="#450D59" stroke-width="3" stroke-linecap="round" stroke-linejoin="round"/>
<path d="M33.6146 67.5475C33.5617 67.7969 35.071 67.3074 35.2488 67.2521C37.6727 66.4979 40.1765 66.0958 42.6418 65.5091C45.9603 64.7195 48.616 63.5243 51.3326 61.5793" stroke="#450D59" stroke-width="3" stroke-linecap="round" stroke-linejoin="round"/>
<path d="M54.6364 60.5052C54.0617 60.5052 54.348 60.6802 54.814 60.6802C59.0278 60.6802 63.0493 59.8992 67.2261 59.5199C70.2777 59.2427 74.5313 58.9272 77.5787 59.6302" stroke="#450D59" stroke-width="3" stroke-linecap="round" stroke-linejoin="round"/>
<path d="M75.8851 59.7085C73.3521 59.7085 80.9454 59.4476 83.478 59.4021C84.1157 59.3907 83.7338 63.3774 83.7338 64.0708C83.7338 64.6476 83.6008 76.7983 83.8626 76.7983" stroke="#450D59" stroke-width="3" stroke-linecap="round" stroke-linejoin="round"/>
<path d="M83.6308 77.1604C83.6308 78.0024 83.2343 79.6375 83.764 80.305C84.9771 81.8339 89.6423 80.977 91.1252 80.1595" stroke="#450D59" stroke-width="3" stroke-linecap="round" stroke-linejoin="round"/>
<path d="M83.6301 58.7613C83.3211 58.7613 88.6429 57.9301 89.7329 57.7461C90.851 57.5573 92.968 56.6211 92.968 57.4759" stroke="#450D59" stroke-width="3" stroke-linecap="round" stroke-linejoin="round"/>
<path d="M97.8545 49.8904C95.6686 50.2144 94.9465 51.7429 94.6337 53.8779C94.0353 57.9606 95.1833 62.1702 99.9663 62.4254C104.883 62.6878 105.708 57.3512 103.917 53.8859C102.967 52.0472 101.293 46.7303 98.4905 48.2792" stroke="#450D59" stroke-width="3" stroke-linecap="round" stroke-linejoin="round"/>
<path d="M99.748 57.7834C98.0959 60.1203 100.992 63.8535 99.9493 66.2438" stroke="#450D59" stroke-width="3" stroke-linecap="round" stroke-linejoin="round"/>
</svg>
