<svg width="130" height="130" viewBox="0 0 130 130" fill="none" xmlns="http://www.w3.org/2000/svg">
<rect width="130" height="130" fill="white"/>
<path d="M19.1261 93.818C14.7015 93.0883 24.7107 92.7207 25.1892 92.6918C26.7409 92.5981 37.328 92.8647 37.565 90.8448C37.9506 87.5594 36.3245 83.2713 36.3245 79.7865C36.3245 71.8579 36.9631 63.9675 36.9631 56.0337C36.9631 55.3265 36.2958 50.7167 37.0451 50.2129C40.0652 48.1819 47.2596 48.8069 50.6517 48.4961C63.6409 47.3056 77.1801 47.2002 90.2541 47.2002" stroke="#450D59" stroke-width="3.23034" stroke-linecap="round" stroke-linejoin="round"/>
<path d="M100.76 37.0974C89.2806 37.0974 88.2914 63.0849 102.186 58.3557C108.802 56.1039 112.492 47.1255 108.854 41.0106C105.464 35.3133 98.2042 35.8476 95.7169 41.5875" stroke="#450D59" stroke-width="3.23034" stroke-linecap="round" stroke-linejoin="round"/>
<path d="M101.108 51.8883C101.108 48.0995 100.184 61.6528 100.184 63.8729" stroke="#450D59" stroke-width="3.23034" stroke-linecap="round" stroke-linejoin="round"/>
<path d="M89.6368 50.4851C89.0422 49.184 88.072 63.5298 88.0072 65.8061C87.8652 70.7914 86.2586 80.488 90.7549 84.3461C93.6035 86.7903 111.812 86.0712 111.812 87.4294" stroke="#450D59" stroke-width="3.23034" stroke-linecap="round" stroke-linejoin="round"/>
</svg>
