<svg width="40" height="40" viewBox="0 0 40 40" fill="none" xmlns="http://www.w3.org/2000/svg">
<g clip-path="url(#clip0_901_52)">
<path d="M29.5013 22.2283C29.4878 22.2225 29.4622 22.2137 29.4235 22.2057C29.4036 22.2017 29.3822 22.2056 29.3618 22.2147C29.3414 22.2238 29.3224 22.24 29.2998 22.264C29.2497 22.3174 29.1368 22.4853 28.9769 22.7361C28.8449 22.9432 28.7724 23.1255 28.7117 23.2859C28.6473 23.456 28.6137 23.6375 28.5875 23.8109C28.5618 23.981 28.5657 24.1933 28.5756 24.4248C28.5801 24.5322 28.5971 24.6183 28.626 24.7428C28.6548 24.8673 28.6983 25.0274 28.7432 25.1672C28.8257 25.4241 28.9121 25.6025 28.9698 25.7098C29.0534 25.8654 29.2471 26.0499 29.3744 26.1551C29.519 26.2746 29.7189 26.3265 29.8857 26.3754C30.1295 26.4468 30.3562 26.4065 30.4468 26.3862C30.4943 26.3755 30.56 26.3425 30.635 26.3039C30.6897 26.2758 30.7622 26.2142 30.8662 26.1173C30.9739 26.0168 31.0646 25.8859 31.1462 25.7626C31.2105 25.6655 31.2539 25.5391 31.3074 25.3686C31.3702 25.1685 31.3943 24.9818 31.4108 24.7546C31.422 24.5988 31.4247 24.3595 31.4273 24.2249C31.4298 24.0904 31.4285 24.0674 31.4057 23.9353C31.383 23.8033 31.339 23.5628 31.3134 23.4273C31.2834 23.2686 31.2466 23.1721 31.182 23.0274C31.1174 22.8825 31.0212 22.75 30.9421 22.6334C30.8578 22.5093 30.6697 22.3587 30.4879 22.2249C30.2883 22.0779 30.0394 22.0308 29.9227 22.0095C29.7962 21.9865 29.6872 22.0101 29.6146 22.0291C29.55 22.057 29.4584 22.117 29.3323 22.2238C29.3078 22.2465 29.2952 22.2603 29.2822 22.2744" stroke="#1E1E1E" stroke-width="0.289885" stroke-linecap="round" stroke-linejoin="round"/>
<path d="M30.3546 24.1402C30.369 24.1416 30.5096 24.1435 30.8195 24.0897C31.0862 24.0434 31.2574 23.959 31.305 23.9378C31.3507 23.9175 31.4899 23.8241 31.6763 23.6968C31.8021 23.5992 31.8986 23.4936 31.9701 23.4013C31.9966 23.3649 32.0034 23.3498 31.9987 23.3132" stroke="#1E1E1E" stroke-width="0.289885" stroke-linecap="round" stroke-linejoin="round"/>
<path d="M29.0124 26.0818C29.0124 26.0914 29.0094 26.1299 29.0019 26.1632C28.9862 26.2082 28.9738 26.2334 28.9582 26.2572C28.9532 26.2637 28.947 26.2708 28.9261 26.2875" stroke="#1E1E1E" stroke-width="0.289885" stroke-linecap="round" stroke-linejoin="round"/>
<path d="M20.2182 32.0371C20.2085 32.0371 20.1988 32.0371 20.1715 32.0371C20.1441 32.0371 20.0995 32.0371 20.0799 32.0131C20.0602 31.9891 20.0668 31.941 20.2816 31.5304C20.4964 31.1197 20.9191 30.3479 21.2897 29.7183C21.6603 29.0888 21.9659 28.6249 22.1649 28.338C22.4358 27.9476 22.7962 27.6066 23.2799 27.1388C23.5022 26.9237 23.6681 26.7441 23.9379 26.5172C24.5562 25.9974 25.0788 25.6666 25.3544 25.5191C25.9386 25.2065 26.4687 25.1252 26.9671 25.0756C27.2084 25.0517 27.4052 25.0818 27.5508 25.1086C27.6955 25.1353 27.8615 25.2019 28.0363 25.2765C28.1803 25.3379 28.2889 25.4223 28.4122 25.5403C28.595 25.7151 28.7142 25.9051 28.7866 26.0253C28.8581 26.1443 28.896 26.2769 28.9274 26.469C28.9786 26.7825 28.9787 27.1084 28.9695 27.339C28.9568 27.6543 28.7508 27.9747 28.5292 28.3604C28.4354 28.5237 28.1087 28.8666 27.6784 29.3118C27.4615 29.5363 27.0627 29.8149 26.4774 30.2123C26.2286 30.3812 26.0676 30.4689 25.6561 30.6559C25.2447 30.8429 24.5852 31.1227 24.0708 31.3279C23.5564 31.5331 23.207 31.6553 22.8578 31.7618C22.1747 31.9701 21.6548 32.0693 21.2293 32.1079C20.9708 32.1223 20.6258 32.1263 20.3849 32.127C20.1441 32.1277 20.0177 32.1251 19.8916 32.1224" stroke="#1E1E1E" stroke-width="0.289885" stroke-linecap="round" stroke-linejoin="round"/>
<path d="M7 36.6933C7.02961 36.7114 7.16424 36.8015 7.3361 36.8817C7.43984 36.9301 7.59215 36.9594 7.86733 36.9985C8.3245 37.0635 8.68789 37.0648 8.82842 37.0604C9.15294 37.0502 9.50981 36.8208 9.6242 36.7344C9.66129 36.7064 9.7024 36.6628 9.73842 36.6394C9.77444 36.6159 9.80185 36.6111 9.84321 36.6175C9.94084 36.6325 10.1341 36.6844 10.745 36.7511C11.216 36.8026 12.0175 36.8517 12.6082 36.879C13.1989 36.9064 13.5553 36.9008 13.8735 36.8816C14.1916 36.8623 14.4607 36.8295 14.7278 36.7797C14.9949 36.7299 15.2519 36.6641 15.4983 36.5877C15.977 36.4392 16.2696 36.3076 16.4415 36.2153C16.7119 36.0702 16.9265 35.9324 17.0774 35.823C17.3075 35.6561 17.4572 35.5184 17.5949 35.3829C17.71 35.2695 17.914 35.0627 18.1022 34.8512C18.2905 34.6398 18.4559 34.4291 18.5849 34.2564C18.714 34.0837 18.8015 33.9553 18.924 33.7587C19.2071 33.3044 19.3795 32.9951 19.414 32.9281C19.5588 32.6936 19.8751 32.1808 19.9774 32.0085C19.9921 31.9844 20.005 31.962 20.0475 31.8953" stroke="#1E1E1E" stroke-width="0.289885" stroke-linecap="round" stroke-linejoin="round"/>
<path d="M23.9442 31.3745C23.9486 31.3745 23.9876 31.3745 24.6152 31.2698C25.2072 31.171 26.3501 30.9556 27.0019 30.8412C27.6538 30.7269 27.7789 30.714 27.8677 30.707C27.9566 30.7001 28.0055 30.6994 28.0382 30.7079C28.071 30.7165 28.086 30.7344 28.0991 30.754C28.1122 30.7737 28.1229 30.7947 28.1306 30.822C28.1905 31.0348 28.1328 31.4133 28.1074 31.6538C28.0942 31.7793 28.0894 31.913 28.0106 32.5848C27.9318 33.2566 27.7815 34.4627 27.698 35.3111C27.6145 36.1594 27.6023 36.6134 27.5975 36.8752C27.5926 37.1371 27.5955 37.1931 27.6002 37.2323C27.6049 37.2715 27.6113 37.2923 27.6276 37.2948C27.7503 37.3133 27.9121 37.0747 28.1295 36.9333C28.2055 36.8839 28.3005 36.8594 28.4737 36.8181C28.7674 36.748 29.0354 36.7264 29.1866 36.7185C29.429 36.7059 29.7598 36.8184 30.0154 36.9221C30.1482 36.976 30.2219 37.0806 30.3019 37.1757C30.3195 37.199 30.3338 37.2211 30.3492 37.2444C30.3646 37.2676 30.3805 37.2913 30.4097 37.3205" stroke="#1E1E1E" stroke-width="0.289885" stroke-linecap="round" stroke-linejoin="round"/>
<path d="M26.6434 27.5777C26.6434 27.5767 26.6434 27.5757 26.5775 27.9709C26.5115 28.366 26.3796 29.1574 26.2912 29.867C26.2028 30.5767 26.1618 31.1807 26.141 31.6172C26.1201 32.0537 26.1206 32.3043 26.1398 32.6669C26.159 33.0296 26.1968 33.4966 26.2551 34.0341C26.3134 34.5717 26.3911 35.1657 26.4375 35.5044C26.4839 35.8431 26.4966 35.9084 26.525 36.0747C26.5534 36.241 26.597 36.5064 26.6585 36.8079C26.72 37.1094 26.7982 37.4391 26.8621 37.6822C26.9652 38.0741 27.0419 38.2711 27.0759 38.3533C27.09 38.3873 27.0988 38.4052 27.108 38.4222C27.1173 38.4392 27.1269 38.4545 27.1409 38.4614C27.1549 38.4682 27.1729 38.466 27.1894 38.457C27.2592 38.4186 27.3337 38.3329 27.4074 38.2812C27.4802 38.2299 27.5884 38.1982 27.6872 38.1738C27.7424 38.1602 27.817 38.1646 27.8887 38.1661C27.9749 38.168 28.0764 38.2214 28.1632 38.2679C28.1981 38.2912 28.2268 38.3143 28.2495 38.3385C28.2606 38.3516 28.2708 38.3664 28.3006 38.4253" stroke="#1E1E1E" stroke-width="0.289885" stroke-linecap="round" stroke-linejoin="round"/>
<path d="M28.6646 28.2197C28.6646 28.2173 28.6699 28.2342 28.7156 28.3504C28.7544 28.4492 28.8309 28.6264 28.9264 28.9049C29.022 29.1833 29.1357 29.5571 29.2448 30.0129C29.354 30.4687 29.455 30.9952 29.5462 31.6455C29.6373 32.2957 29.7155 33.0538 29.8044 33.7631C29.8933 34.4723 29.9907 35.1097 30.0448 35.4559C30.1046 35.8381 30.1285 35.9226 30.155 36.0008C30.1655 36.0318 30.181 36.0407 30.1948 36.0409C30.3639 36.0427 30.5695 35.7864 30.6628 35.7509C30.7797 35.7065 30.8708 35.7139 30.9352 35.7153C30.963 35.7159 30.9804 35.7235 30.9993 35.7324C31.0861 35.7732 31.1503 35.8456 31.2058 35.9129C31.222 35.9348 31.2405 35.9619 31.2562 35.9823C31.2719 36.0027 31.2842 36.0155 31.3112 36.0465" stroke="#1E1E1E" stroke-width="0.289885" stroke-linecap="round" stroke-linejoin="round"/>
<g style="mix-blend-mode:plus-darker" opacity="0.55">
<path d="M31.2164 35.0375L29.6733 38.7911L29.7628 38.8279C29.8587 38.8673 29.9614 38.8896 30.0639 38.8745C30.4045 38.8244 31.2214 38.5834 31.6961 37.4287C31.8368 37.0863 32.1681 36.6963 32.4728 36.3848C32.7408 36.1108 32.6643 35.6328 32.3098 35.487L31.2164 35.0375ZM30.198 36.855L30.3518 34.8316L30.198 36.855ZM8.49886 37.599L8.42923 35.571L8.40662 35.5718L8.38404 35.5731L8.49886 37.599ZM7.93198 37.648L7.57427 35.6506L7.54887 35.6551L7.52359 35.6603L7.93198 37.648ZM8.47779 39.5982L7.13159 35.7696L7.04034 35.8017C6.94255 35.836 6.85103 35.8878 6.78452 35.9673C6.56368 36.2313 6.11436 36.9548 6.52848 38.1326C6.65127 38.4818 6.66354 38.9934 6.64345 39.4287C6.6257 39.8115 7.0009 40.1175 7.36255 39.9903L8.47779 39.5982ZM30.4449 36.9143L31.2164 35.0375C30.9728 34.9374 30.6894 34.8573 30.3518 34.8316L30.198 36.855L30.0442 38.8784C29.983 38.8737 29.9129 38.8633 29.8386 38.8448C29.7651 38.8265 29.708 38.8054 29.6733 38.7911L30.4449 36.9143ZM30.198 36.855L30.3518 34.8316C30.0742 34.8105 29.7563 34.8422 29.1464 34.8978L29.3307 36.9186L29.5151 38.9394C29.8791 38.9062 30.0602 38.8912 30.1538 38.8847C30.2009 38.8814 30.2025 38.882 30.1826 38.8825C30.1463 38.8832 30.0968 38.8824 30.0442 38.8784L30.198 36.855ZM29.3307 36.9186L29.1464 34.8978C28.4045 34.9655 27.0857 35.0932 25.8585 35.1588L25.9668 37.1851L26.0751 39.2114C27.3971 39.1408 28.8074 39.004 29.5151 38.9394L29.3307 36.9186ZM25.9668 37.1851L25.8585 35.1588C24.6522 35.2233 23.5624 35.224 22.2727 35.2029L22.2395 37.2318L22.2063 39.2608C23.5358 39.2825 24.7324 39.2832 26.0751 39.2114L25.9668 37.1851ZM22.2395 37.2318L22.2727 35.2029C20.991 35.1819 19.4907 35.1376 17.7072 35.1847L17.7608 37.2132L17.8143 39.2417C19.4867 39.1975 20.869 39.2389 22.2063 39.2608L22.2395 37.2318ZM17.7608 37.2132L17.7072 35.1847C15.9458 35.2312 13.9043 35.3706 12.634 35.4366L12.7393 37.463L12.8446 39.4895C14.2197 39.418 16.1199 39.2864 17.8143 39.2417L17.7608 37.2132ZM12.7393 37.463L12.634 35.4366C11.354 35.5031 10.7803 35.5006 10.333 35.5086L10.3694 37.5375L10.4058 39.5664C10.8231 39.5589 11.4791 39.5605 12.8446 39.4895L12.7393 37.463ZM10.3694 37.5375L10.333 35.5086C9.88051 35.5168 9.55374 35.538 9.32769 35.5467L9.40523 37.5744L9.48277 39.6021C9.8581 39.5878 9.99362 39.5738 10.4058 39.5664L10.3694 37.5375ZM9.40523 37.5744L9.32769 35.5467C8.94649 35.5613 8.82294 35.5575 8.42923 35.571L8.49886 37.599L8.56848 39.627C8.65968 39.6239 9.2626 39.6105 9.48277 39.6021L9.40523 37.5744ZM8.49886 37.599L8.38404 35.5731C8.03049 35.5931 7.77482 35.6147 7.57427 35.6506L7.93198 37.648L8.28969 39.6454C8.24303 39.6538 8.23261 39.6528 8.2949 39.6471C8.35208 39.6418 8.4513 39.6342 8.61367 39.625L8.49886 37.599ZM7.93198 37.648L7.52359 35.6603C7.40279 35.6852 7.27617 35.7187 7.13159 35.7696L7.80469 37.6839L8.47779 39.5982C8.46493 39.6027 8.44294 39.61 8.41396 39.618C8.38392 39.6262 8.35793 39.6321 8.34037 39.6357L7.93198 37.648Z" fill="#979797"/>
</g>
</g>
<defs>
<clipPath id="clip0_901_52">
<rect width="40" height="40" fill="white"/>
</clipPath>
</defs>
</svg>
