<svg width="40" height="40" viewBox="0 0 40 40" fill="none" xmlns="http://www.w3.org/2000/svg">
<path d="M16.4845 22.0875C16.4845 22.0936 16.4722 22.1362 16.453 22.4688C16.4361 22.7617 16.4452 23.308 16.4503 23.6381C16.4553 23.9682 16.4664 24.0659 16.5354 24.4306C16.6044 24.7953 16.731 25.424 16.8581 25.9983C16.9852 26.5726 17.1089 27.0735 17.1787 27.3495C17.2577 27.6623 17.3061 27.7775 17.4913 28.196C17.6418 28.5364 17.9128 29.1341 18.0633 29.4621C18.2327 29.8313 18.3369 29.9705 18.5525 30.2293C18.8742 30.6153 19.1441 30.8583 19.2615 30.9477C19.6022 31.2071 20.1049 31.3405 20.4971 31.4193C20.8254 31.4853 21.0862 31.4297 21.2255 31.3994C21.4546 31.3496 21.6415 31.2905 21.7441 31.2423C21.9995 31.1223 22.1666 30.9217 22.2791 30.7882C22.3399 30.7162 22.4032 30.6425 22.4541 30.5625C22.5038 30.4844 22.5429 30.3523 22.5882 30.1685C22.6382 29.9662 22.6361 29.6256 22.6364 29.2293C22.6365 28.9493 22.5656 28.6271 22.4411 28.1249C22.3681 27.8306 22.2384 27.4663 22.1426 27.158C21.9731 26.6129 21.8839 26.3037 21.8033 26.1299C21.5749 25.6376 21.4791 25.4654 21.2345 25.0631C21.0802 24.8092 20.9987 24.6269 20.9073 24.4803C20.5624 23.9266 20.3131 23.6442 20.1454 23.4443C20.0383 23.3167 19.8595 23.1543 19.5503 22.861C19.3894 22.7084 19.1495 22.5692 18.8688 22.3944C18.6593 22.264 18.4693 22.1916 18.3157 22.1417C18.0595 22.0583 17.7662 21.9895 17.5297 21.9427C17.3534 21.9078 17.1428 21.9046 16.9245 21.906C16.809 21.9226 16.7438 21.9493 16.6783 21.9738C16.6459 21.9841 16.6156 21.99 16.5545 22.0112" stroke="#1E1E1E" stroke-width="0.257717" stroke-linecap="round" stroke-linejoin="round"/>
<path d="M16.5147 22.1589C16.5069 22.1632 16.4991 22.1674 16.4891 22.1864C16.4791 22.2054 16.4672 22.239 16.4238 22.4122C16.3803 22.5855 16.3055 22.8974 16.2211 24.2271C16.1368 25.5568 16.045 27.8948 16.0133 29.8539C15.9815 31.8129 16.0125 33.3222 16.0457 34.5499C16.0788 35.7776 16.1131 36.6779 16.1323 37.1615C16.1564 37.7659 16.1975 37.9282 16.234 38.1391C16.243 38.1915 16.251 38.2363 16.2647 38.2692C16.2785 38.3021 16.2974 38.322 16.3221 38.3261C16.3765 38.3353 16.526 38.2429 16.8272 38.0968C17.2454 37.894 17.5711 37.787 17.7059 37.7544C17.8386 37.7222 17.9731 37.7243 18.1043 37.7286C18.2431 37.7332 18.3744 37.7744 18.4901 37.8129C18.732 37.9391 18.964 38.0954 19.0572 38.1671C19.0764 38.1867 19.0926 38.2081 19.1379 38.2535" stroke="#1E1E1E" stroke-width="0.257717" stroke-linecap="round" stroke-linejoin="round"/>
<path d="M19.5588 29.4202C19.5588 29.4787 19.5775 29.8309 19.5641 30.6035C19.5591 30.8956 19.5077 31.2981 19.3355 32.1197C19.1634 32.9413 18.8573 34.1692 18.6445 35.1013C18.4317 36.0334 18.3214 36.6325 18.2433 37.1998C18.1652 37.7672 18.1226 38.2847 18.1007 38.6385C18.0787 38.9924 18.0787 39.1669 18.0964 39.2499C18.114 39.3328 18.1493 39.3188 18.192 39.2907C18.2883 39.2273 18.3844 39.1463 18.4771 39.0907C18.5505 39.0466 18.625 39.0243 18.7025 39.0083C18.7416 39.0002 18.782 39.0017 18.8215 39.0058C18.8611 39.01 18.899 39.0192 18.9358 39.0355C19.0102 39.0685 19.0693 39.1249 19.1191 39.1782C19.1605 39.2333 19.1935 39.288 19.2207 39.341C19.2339 39.3679 19.2458 39.395 19.2785 39.4256" stroke="#1E1E1E" stroke-width="0.257717" stroke-linecap="round" stroke-linejoin="round"/>
<path d="M17.0333 27.0062C17.0376 26.9837 17.042 26.9612 17.0457 26.9619C17.0494 26.9626 17.0523 26.9871 17.0582 27.4508C17.064 27.9145 17.0726 28.8165 17.0695 29.8519C17.0663 30.8873 17.0511 32.0287 17.0671 32.9624C17.0831 33.896 17.1308 34.5874 17.1586 35.149C17.1863 35.7105 17.1927 36.1214 17.1983 36.3443C17.2038 36.5671 17.2083 36.5896 17.2222 36.6055C17.236 36.6215 17.2589 36.6302 17.2873 36.6346C17.3157 36.6391 17.3489 36.6391 17.3831 36.6359C17.4516 36.6294 17.6963 36.5464 18.0436 36.4288C18.2371 36.3633 18.3668 36.3512 18.4907 36.3434C18.5913 36.3371 18.7474 36.3655 18.9313 36.4094C19.2069 36.4752 19.482 36.6803 19.72 36.8707C19.7804 36.9209 19.8215 36.957 19.8528 36.9897C19.8841 37.0223 19.9043 37.0504 19.9513 37.1171" stroke="#1E1E1E" stroke-width="0.257717" stroke-linecap="round" stroke-linejoin="round"/>
<path d="M21.8001 35.8529C21.8037 35.8529 21.826 35.8554 21.8671 35.8566C21.9085 35.8577 22.0783 35.6824 22.3121 35.4277C22.413 35.3178 22.4373 35.2785 22.46 35.2421C22.4824 35.2061 22.557 35.0201 22.6778 34.6782C22.7391 34.5046 22.7768 34.3229 22.8072 34.1806C22.8587 33.9399 22.8725 33.7706 22.8759 33.6596C22.878 33.5921 22.8583 33.4615 22.823 33.2688C22.7961 33.1219 22.7434 33.0071 22.6854 32.8885C22.6186 32.7522 22.5478 32.6525 22.5063 32.5982C22.4766 32.5594 22.3287 32.4319 22.1171 32.2541C22.024 32.1758 21.9552 32.1379 21.855 32.0885C21.6711 31.9976 21.4846 32.0011 21.3291 32.002C21.2261 32.0026 21.0238 32.1123 20.8639 32.1931C20.8142 32.2183 20.7213 32.3158 20.5948 32.4513C20.5021 32.5505 20.4308 32.6885 20.3519 32.8456C20.2907 32.9675 20.2517 33.1177 20.1954 33.3434C20.162 33.4777 20.134 33.6555 20.1159 33.8223C20.0978 33.989 20.0945 34.1403 20.1002 34.2604C20.11 34.4656 20.1629 34.6496 20.2074 34.8092C20.231 34.8937 20.2515 34.9373 20.2752 34.9836C20.3036 35.0391 20.4052 35.1515 20.56 35.3146C20.7021 35.4641 20.8127 35.5489 20.8823 35.6C21.0612 35.7314 21.2625 35.8166 21.3998 35.8578C21.5157 35.8926 21.6283 35.8796 21.7151 35.8648C21.7337 35.8587 21.7555 35.8509 21.7742 35.8454C21.7929 35.8399 21.8078 35.837 21.8231 35.8339" stroke="#1E1E1E" stroke-width="0.257717" stroke-linecap="round" stroke-linejoin="round"/>
<path d="M20.9369 33.697C20.9391 33.697 20.9413 33.697 20.8659 33.7396C20.7906 33.7821 20.6376 33.8672 20.5015 33.9523C20.3654 34.0373 20.2507 34.1198 20.14 34.2107C20.0293 34.3017 19.926 34.3986 19.8553 34.4617C19.7846 34.5248 19.7496 34.5513 19.7239 34.5649C19.6982 34.5785 19.6828 34.5785 19.667 34.5785" stroke="#1E1E1E" stroke-width="0.257717" stroke-linecap="round" stroke-linejoin="round"/>
<g style="mix-blend-mode:plus-darker" opacity="0.55">
<path d="M16.345 39.5731L15.8903 35.9939L15.805 36.0047C15.7136 36.0163 15.6244 36.0442 15.5517 36.1008C15.3105 36.2891 14.7847 36.834 14.9246 37.9351C14.9661 38.2615 14.8811 38.7085 14.7823 39.083C14.6954 39.4125 14.9643 39.7485 15.3024 39.7056L16.345 39.5731ZM16.9018 37.8013L16.7503 39.5989L16.9018 37.8013ZM18.7979 37.7268L18.8486 39.5301L18.8675 39.5296L18.8863 39.5286L18.7979 37.7268ZM19.5545 37.7804L19.2609 39.5604L19.27 39.5618L19.5545 37.7804ZM20.0978 36.0433L19.4917 39.6L19.5765 39.6145C19.6673 39.63 19.7607 39.6293 19.8468 39.5962C20.1324 39.4862 20.7939 39.1178 20.9803 38.0237C21.0356 37.6993 21.2468 37.2964 21.4503 36.9667C21.6294 36.6768 21.4698 36.2771 21.1338 36.2198L20.0978 36.0433ZM16.1177 37.7835L16.345 39.5731C16.2401 39.5865 16.3013 39.5611 16.7503 39.5989L16.9018 37.8013L17.0532 36.0036C16.4664 35.9542 16.1297 35.9635 15.8903 35.9939L16.1177 37.7835ZM16.9018 37.8013L16.7503 39.5989C17.3694 39.6511 17.8935 39.6293 18.2905 39.5946C18.4867 39.5775 18.6522 39.5571 18.7652 39.5432C18.9236 39.5237 18.9001 39.5286 18.8486 39.5301L18.7979 37.7268L18.7471 35.9235C18.5827 35.9281 18.3885 35.9543 18.3238 35.9623C18.2137 35.9759 18.1036 35.9892 17.9769 36.0003C17.728 36.022 17.417 36.0343 17.0532 36.0036L16.9018 37.8013ZM18.7979 37.7268L18.8863 39.5286C18.9553 39.5252 19.0733 39.5294 19.2609 39.5604L19.5545 37.7804L19.8482 36.0004C19.4869 35.9408 19.103 35.9056 18.7094 35.9249L18.7979 37.7268ZM19.5545 37.7804L19.27 39.5618C19.335 39.5722 19.3533 39.5765 19.4917 39.6L19.7947 37.8216L20.0978 36.0433C20.036 36.0327 19.9195 36.0118 19.839 35.9989L19.5545 37.7804Z" fill="#979797"/>
</g>
</svg>
