<svg width="40" height="40" viewBox="0 0 40 40" fill="none" xmlns="http://www.w3.org/2000/svg">
<g clip-path="url(#clip0_901_91)">
<path d="M22.4341 35.6203C22.4185 35.6525 22.3761 35.7351 22.3556 35.7925C22.3349 35.8505 22.3956 35.9775 22.458 36.1367C22.553 36.3792 22.8487 36.7199 23.0493 36.917C23.1533 37.0192 23.3307 37.1109 23.5433 37.2264C23.7884 37.3594 24.0945 37.4623 24.4622 37.5661C24.6675 37.6241 24.9196 37.6599 25.1253 37.6852C25.331 37.7104 25.4849 37.7155 25.7168 37.7108C25.9487 37.7061 26.254 37.6914 26.7006 37.6329C27.1473 37.5744 27.726 37.4725 28.1484 37.3835C28.5708 37.2944 28.8194 37.2214 29.1712 37.0868C29.523 36.9521 29.9705 36.7581 30.2507 36.6294C30.531 36.5008 30.6303 36.4435 30.8553 36.2749C31.0803 36.1063 31.4279 35.8282 31.7073 35.5905C31.9866 35.3528 32.1873 35.164 32.3508 34.9989C32.6419 34.7049 32.839 34.451 32.9921 34.2377C33.1371 34.0357 33.2819 33.7312 33.4354 33.3832C33.5506 33.1218 33.5882 32.9043 33.6218 32.6919C33.6994 32.2008 33.6311 31.8817 33.5635 31.58C33.4819 31.2157 33.2931 30.9466 33.1596 30.721C32.9737 30.4068 32.5917 30.0228 32.4517 29.91C32.3429 29.8223 32.1572 29.7777 32.0204 29.7482C31.9859 29.7451 31.945 29.7444 31.9093 29.7455C31.8736 29.7466 31.8445 29.7495 31.7569 29.7735" stroke="#1E1E1E" stroke-width="0.274127" stroke-linecap="round" stroke-linejoin="round"/>
<path d="M33.5399 26.1732C33.5295 26.1782 33.5071 26.1886 33.4721 26.2068C33.4338 26.2267 33.3136 26.3511 33.147 26.528C33.0827 26.5962 33.0622 26.6231 32.9961 26.7242C32.93 26.8253 32.8197 27.0004 32.7315 27.1632C32.6433 27.3261 32.5806 27.4713 32.5368 27.5841C32.4643 27.7709 32.434 27.9136 32.41 28.0597C32.3794 28.2462 32.3752 28.4238 32.3784 28.5971C32.3829 28.8372 32.4173 29.0447 32.444 29.1889C32.4735 29.3483 32.5186 29.4756 32.5617 29.5796C32.6179 29.7149 32.7108 29.8805 32.8051 30.0448C32.9334 30.2685 33.0705 30.3825 33.1907 30.4794C33.358 30.6142 33.6052 30.6931 33.7321 30.7224C33.863 30.7527 33.9744 30.749 34.03 30.7477C34.0978 30.7463 34.1574 30.7319 34.208 30.7173C34.3528 30.6756 34.4735 30.5818 34.6401 30.4396C34.7545 30.3418 34.8262 30.2518 34.9127 30.1254C34.9811 30.0255 35.0898 29.8463 35.1564 29.7352C35.2454 29.5867 35.2801 29.4864 35.3219 29.3224C35.3488 29.217 35.371 29.0627 35.3903 28.913C35.4095 28.7634 35.4209 28.6221 35.4236 28.4386C35.4263 28.2551 35.4199 28.0337 35.4133 27.8917C35.4042 27.6935 35.3539 27.4839 35.2901 27.243C35.2474 27.082 35.0805 26.8466 34.9643 26.6908C34.8751 26.5712 34.67 26.4409 34.5112 26.352C34.3105 26.2396 34.1318 26.1745 34.0466 26.1487C33.9538 26.1207 33.8587 26.1106 33.7836 26.1052C33.6636 26.1247 33.5389 26.1709 33.4926 26.1963C33.4728 26.2083 33.4605 26.2186 33.4393 26.2407" stroke="#1E1E1E" stroke-width="0.274127" stroke-linecap="round" stroke-linejoin="round"/>
<path d="M34.2885 28.472C34.3081 28.4839 34.4856 28.5268 34.765 28.5772C35.0271 28.6245 35.1817 28.6273 35.2318 28.6268C35.2949 28.6263 35.4079 28.6024 35.5617 28.5657C35.7103 28.5215 35.8353 28.4752 35.9189 28.4387C35.9521 28.424 35.9666 28.4168 36 28.3885" stroke="#1E1E1E" stroke-width="0.274127" stroke-linecap="round" stroke-linejoin="round"/>
<path d="M22.2983 35.7911C22.298 35.7907 22.2977 35.7903 22.3 35.7818C22.3023 35.7733 22.3073 35.7566 22.3326 35.7286C22.3978 35.6565 22.4664 35.6149 22.4989 35.6017C22.5652 35.5747 22.6482 35.5629 22.8598 35.5486C22.9491 35.5426 23.0673 35.5136 23.224 35.4816C23.3619 35.4535 23.5837 35.4078 23.8711 35.3298C24.1115 35.2646 24.2586 35.207 24.4558 35.156C24.6117 35.1158 24.8805 35.0455 25.0906 34.9828C25.3007 34.9202 25.444 34.867 25.5345 34.8315C25.6251 34.7959 25.6586 34.7796 25.7629 34.7263C25.8673 34.673 26.0415 34.5832 26.3228 34.4366C26.6041 34.29 26.9872 34.0892 27.3733 33.8586C27.7595 33.628 28.137 33.3737 28.4175 33.1742C28.6979 32.9747 28.8698 32.8377 29.0302 32.699C29.1906 32.5602 29.3344 32.4238 29.5447 32.1968C29.7551 31.9698 30.0278 31.6564 30.2957 31.338C30.5636 31.0196 30.8185 30.7059 30.9585 30.5327C31.1166 30.3371 31.2067 30.2304 31.336 30.0865C31.51 29.9097 31.609 29.822 31.6378 29.8014C31.6532 29.7927 31.67 29.7877 31.6993 29.8184" stroke="#1E1E1E" stroke-width="0.274127" stroke-linecap="round" stroke-linejoin="round"/>
<path d="M22.3914 35.6968C22.3884 35.6968 22.3608 35.6985 22.2429 35.7203C22.1504 35.7375 21.9942 35.7793 21.31 35.8695C20.6259 35.9598 19.4194 36.1005 17.2408 36.2266C15.0623 36.3528 11.9484 36.4601 10.3278 36.5179C8.70717 36.5756 8.67416 36.5804 8.61098 36.5833C8.54781 36.5862 8.45547 36.5869 8.40083 36.6011C8.26026 36.6375 8.18415 36.7916 7.93935 36.9185C7.8343 36.973 7.66934 37.0307 7.47961 37.0906C7.28989 37.1504 7.07692 37.2035 6.82448 37.2513C6.57204 37.2992 6.28659 37.3403 6.02164 37.3638C5.52205 37.4082 5.19428 37.3841 4.97656 37.3417C4.44381 37.208 4.34885 37.1698 4.27384 37.128C4.23434 37.1052 4.19189 37.0791 4.13086 37.0139" stroke="#1E1E1E" stroke-width="0.274127" stroke-linecap="round" stroke-linejoin="round"/>
<path d="M22.9864 36.8628C22.9834 36.8628 22.9551 36.8573 22.9022 36.8496C22.7445 36.8269 22.499 36.9219 21.9496 36.9665C21.4795 37.0046 20.6196 37.0551 19.5077 37.1002C18.3958 37.1452 17.0577 37.1783 15.8784 37.233C14.699 37.2876 13.7191 37.3628 12.5914 37.4283C11.4636 37.4938 10.2178 37.5474 9.5645 37.5798C8.91118 37.6121 8.88809 37.6216 8.7686 37.6866C8.43257 37.8694 8.17742 38.0154 8.08543 38.063C7.82498 38.1979 7.52828 38.2671 7.07687 38.377C6.80966 38.4421 6.45692 38.4901 6.14257 38.5226C5.56269 38.5826 5.2594 38.5663 5.14855 38.5542C4.64789 38.4888 4.28912 38.4332 4.13122 38.3819C4.08781 38.3628 4.0327 38.3353 4 38.29" stroke="#1E1E1E" stroke-width="0.274127" stroke-linecap="round" stroke-linejoin="round"/>
<path d="M32.1027 31.7896C32.1027 31.7938 32.1027 31.798 32.0925 31.8131C32.0823 31.8283 32.062 31.8544 31.6311 32.2178C31.2002 32.5813 30.3595 33.2814 29.9139 33.6509C29.4683 34.0203 29.4433 34.038 29.4225 34.0595C29.4016 34.0811 29.3857 34.106 29.3801 34.1344C29.3745 34.1628 29.3797 34.1939 29.3913 34.225C29.4152 34.2888 29.5891 34.5357 29.9468 35.0263C30.1486 35.3031 30.4157 35.6188 30.6991 35.9959C30.9824 36.3731 31.2801 36.7976 31.486 37.0715C31.9013 37.6238 32.034 37.7007 32.1102 37.8179C32.1282 37.8456 32.1404 37.8704 32.1602 37.873C32.2946 37.8907 32.4422 37.6602 32.6367 37.5475C32.7797 37.4647 33.0235 37.4496 33.2547 37.445C33.4028 37.442 33.5524 37.6138 33.686 37.7338C33.7314 37.7869 33.7713 37.8368 33.8081 37.8801C33.8271 37.9013 33.8466 37.9209 33.8941 37.9708" stroke="#1E1E1E" stroke-width="0.274127" stroke-linecap="round" stroke-linejoin="round"/>
<g style="mix-blend-mode:plus-darker" opacity="0.55">
<path d="M4.0354 40.066V36.2282H3.94393C3.84591 36.2282 3.74805 36.2457 3.66378 36.2957C3.38394 36.462 2.75614 36.9665 2.75614 38.1471C2.75614 38.4972 2.60663 38.9574 2.45216 39.3394C2.31624 39.6753 2.55498 40.066 2.91749 40.066H4.0354ZM5.78973 38.0495L5.91149 39.9646L5.78973 38.0495ZM33.4378 35.3999L33.558 39.2358L33.6494 39.233C33.7474 39.2299 33.8447 39.2094 33.9273 39.1567C34.2018 38.9817 34.8135 38.4578 34.7765 37.2778C34.7656 36.9279 34.9006 36.4633 35.043 36.0766C35.1683 35.7365 34.9175 35.3536 34.5552 35.3649L33.4378 35.3999ZM4.0354 38.1471V40.066C4.13147 40.066 4.75187 40.0383 5.91149 39.9646L5.78973 38.0495L5.66796 36.1345C5.08113 36.1718 4.655 36.1958 4.37536 36.2103C4.23546 36.2176 4.13277 36.2225 4.06538 36.2255C4.03153 36.227 4.00759 36.228 3.9929 36.2286C3.95105 36.2302 3.99009 36.2282 4.0354 36.2282V38.1471ZM5.78973 38.0495L5.91149 39.9646C6.56841 39.9228 7.49835 39.811 7.84504 39.7802L7.67521 37.8688L7.50539 35.9575C6.87762 36.0133 6.31358 36.0935 5.66796 36.1345L5.78973 38.0495ZM7.67521 37.8688L7.84504 39.7802C8.2122 39.7476 8.30394 39.7461 8.74098 39.7837L8.90532 37.8719L9.06965 35.96C8.42879 35.9049 8.11268 35.9035 7.50539 35.9575L7.67521 37.8688ZM8.90532 37.8719L8.74098 39.7837C9.24539 39.8271 10.1719 39.9252 11.431 39.9863L11.5239 38.0696L11.6169 36.153C10.4522 36.0965 9.64314 36.0093 9.06965 35.96L8.90532 37.8719ZM11.5239 38.0696L11.431 39.9863C12.6879 40.0472 14.2629 40.0699 15.6263 40.0393L15.5833 38.1209L15.5402 36.2025C14.268 36.231 12.7838 36.2096 11.6169 36.153L11.5239 38.0696ZM15.5833 38.1209L15.6263 40.0393C16.9966 40.0086 18.1068 39.9229 19.0179 39.8623L18.8905 37.9476L18.7632 36.033C17.8145 36.0961 16.8055 36.1741 15.5402 36.2025L15.5833 38.1209ZM18.8905 37.9476L19.0179 39.8623C19.9538 39.8 20.6709 39.7639 21.5404 39.7096L21.4207 37.7944L21.3009 35.8793C20.506 35.929 19.6871 35.9715 18.7632 36.033L18.8905 37.9476ZM21.4207 37.7944L21.5404 39.7096C22.3962 39.6561 23.2369 39.5946 24.2299 39.5457L24.1355 37.6291L24.0412 35.7125C23.0149 35.7631 22.1095 35.8287 21.3009 35.8793L21.4207 37.7944ZM24.1355 37.6291L24.2299 39.5457C25.2444 39.4957 26.299 39.4647 27.1902 39.4262L27.1075 37.5091L27.0248 35.592C26.2309 35.6263 25.0459 35.6631 24.0412 35.7125L24.1355 37.6291ZM27.1075 37.5091L27.1902 39.4262C28.0977 39.3871 28.5432 39.353 29.4587 39.3221L29.3941 37.4043L29.3295 35.4865C28.4198 35.5172 27.8025 35.5585 27.0248 35.592L27.1075 37.5091ZM29.3941 37.4043L29.4587 39.3221C30.3523 39.292 31.6138 39.2696 32.3711 39.2571L32.3395 37.3385L32.3078 35.4199C31.5549 35.4323 30.2611 35.4552 29.3295 35.4865L29.3941 37.4043ZM32.3395 37.3385L32.3711 39.2571C33.1071 39.245 33.3296 39.243 33.558 39.2358L33.4979 37.3179L33.4378 35.3999C33.2473 35.4059 33.0821 35.4071 32.3078 35.4199L32.3395 37.3385Z" fill="#979797"/>
</g>
</g>
<defs>
<clipPath id="clip0_901_91">
<rect width="40" height="40" fill="white"/>
</clipPath>
</defs>
</svg>
