<svg width="400" height="400" viewBox="0 0 400 400" fill="none" xmlns="http://www.w3.org/2000/svg">
<path d="M53.3214 378.29C48.7952 378.376 25.8009 387.388 22.9267 381.718C11.7629 359.699 52.2853 324.225 63.1906 314.427C131.032 253.479 206.364 210.474 293.345 230.136C309.62 233.814 327.128 241.669 332.663 262.742C339.019 286.938 345.673 318.52 345.673 344.127C345.673 365.685 342.055 365.403 355.522 356.745C362.318 352.376 379.465 344.851 386.119 353.531C387.921 355.882 389.14 363.509 386.361 365.336M225.448 136.499C221.027 120.076 225.196 170.556 225.903 187.563C226.163 193.806 229.062 225.803 216.615 225.803M197.983 52.5269C175.092 45.1433 189.055 115.596 219.618 119.631C280.084 127.612 235.811 23.6007 197.983 49.1472M108.083 30.9972C97.8879 59.1956 127.586 98.8249 141.33 121.691C151.127 137.99 198.523 176.926 217.999 182.983M289.465 12.4131C302.589 5.51314 299.323 87.2355 298.894 93.8838C297.479 115.796 291.371 140.149 279.132 158.546C273.706 166.703 235.013 184.237 230.484 192.693" stroke="black" stroke-width="23.7138" stroke-linecap="round" stroke-linejoin="round"/>
</svg>
